<?xml version="1.0" encoding="UTF-8"?>
<svg version="1.1" xmlns="http://www.w3.org/2000/svg" width="512" height="512">
<path d="M0 0 C0.99 -0.03287109 0.99 -0.03287109 2 -0.06640625 C4 0.5625 4 0.5625 8 5.5625 C8 10.1825 8 14.8025 8 19.5625 C38.69 19.5625 69.38 19.5625 101 19.5625 C102 23.5625 102 23.5625 101.06640625 25.23828125 C96.97279613 29.69340499 92.63205653 33.67395174 88 37.5625 C86.86545238 38.52422897 85.73137341 39.48651095 84.59765625 40.44921875 C81.40336988 43.15952234 78.2029551 45.86244791 75 48.5625 C75.40388617 52.98453581 78.41476198 55.13495811 81.5625 57.875 C82.10463135 58.358479 82.6467627 58.84195801 83.20532227 59.34008789 C84.79654053 60.75573647 86.3973639 62.15980693 88 63.5625 C88.79148437 64.26632813 89.58296875 64.97015625 90.3984375 65.6953125 C93.18489576 68.1614882 95.95093097 70.52595923 98.9375 72.75 C101 74.5625 101 74.5625 101.9375 76.625 C102 78.5625 102 78.5625 100 81.5625 C97.03954501 81.84858931 94.2892287 81.94052086 91.32763672 81.90307617 C89.9812059 81.90373329 89.9812059 81.90373329 88.60757446 81.90440369 C85.63139324 81.90230845 82.65577069 81.87894287 79.6796875 81.85546875 C77.61988635 81.84987541 75.56008122 81.84560408 73.50027466 81.84260559 C68.07172682 81.83113623 62.64341875 81.80165105 57.21496582 81.76849365 C51.6784998 81.73783781 46.14199513 81.72410986 40.60546875 81.70898438 C29.73687367 81.67678336 18.86845675 81.62556178 8 81.5625 C8.03092711 82.22569339 8.06185423 82.88888678 8.09371853 83.57217693 C9.06797152 105.33981685 9.06323356 127.05661907 8.89946485 148.84051538 C8.86446299 153.6676727 8.83631499 158.49487058 8.80735779 163.32206726 C8.75182747 172.41241526 8.69036915 181.50271252 8.62663645 190.59300631 C8.5542279 200.9634643 8.48864803 211.33396222 8.42356598 221.70446837 C8.28983227 242.99053083 8.14776932 264.27653064 8 285.5625 C8.59611084 285.55361755 9.19222168 285.54473511 9.80639648 285.5355835 C16.03603483 285.44677928 22.26549202 285.38662895 28.49560547 285.34277344 C30.81761993 285.32271423 33.13958423 285.29546009 35.46142578 285.26074219 C38.80774345 285.21197459 42.15339059 285.18947357 45.5 285.171875 C46.5305249 285.15122986 47.5610498 285.13058472 48.62280273 285.10931396 C55.61056347 285.10716062 61.34787922 286.08238695 66.55639648 291.04559326 C70.90606017 296.01979545 71.14443455 300.11735214 71.12025452 306.44010925 C71.12153615 307.65676922 71.12153615 307.65676922 71.12284368 308.89800817 C71.12449519 311.62498015 71.11898246 314.35189107 71.11352539 317.07885742 C71.11324342 319.03001402 71.11340144 320.98117073 71.1139679 322.93232727 C71.11425549 328.23777479 71.10836482 333.54319983 71.10139394 338.84864211 C71.09515415 344.39000444 71.0945561 349.93136725 71.09336853 355.47273254 C71.09025706 365.96993033 71.08204615 376.46711773 71.07201904 386.96431094 C71.06085219 398.9133658 71.05534601 410.86242115 71.05032361 422.81147993 C71.0398634 447.39515905 71.02226751 471.97882894 71 496.5625 C71.85754883 496.55202637 72.71509766 496.54155273 73.59863281 496.53076172 C76.78921513 496.49661704 79.97970412 496.47157041 83.17041016 496.45263672 C84.54967315 496.44259747 85.92891496 496.42896323 87.30810547 496.41162109 C89.2938514 496.38728246 91.2797545 496.37706745 93.265625 496.3671875 C94.45961914 496.35671387 95.65361328 496.34624023 96.88378906 496.33544922 C99.88554841 496.55416092 101.51449424 496.9266836 104 498.5625 C106.09679403 501.25837803 105.99510821 502.655444 105.8125 506.125 C104.7334881 510.69005036 104.7334881 510.69005036 102 512.5625 C99.45678507 512.85735899 97.15811644 512.96685824 94.61421299 512.94281673 C93.47116603 512.94980661 93.47116603 512.94980661 92.30502722 512.9569377 C89.73065072 512.96896633 87.15679438 512.95946228 84.58241272 512.95018005 C82.72651087 512.95434954 80.87061157 512.95982492 79.01471704 512.96649987 C73.89845898 512.98102382 68.78236104 512.97668816 63.66609395 512.96933305 C58.15475562 512.96462079 52.64345292 512.97709395 47.13212585 512.98735046 C36.32868699 513.00458202 25.52530618 513.00536947 14.72185714 513.00013756 C5.94430517 512.99610274 -2.83322958 512.99753121 -11.61078072 513.00288582 C-13.48180751 513.00400845 -13.48180751 513.00400845 -15.39063283 513.00515376 C-17.92429531 513.00668518 -20.45795778 513.00822352 -22.99162025 513.00976873 C-40.01351109 513.01960372 -57.0353961 513.02375468 -74.05728817 513.01614285 C-74.72327637 513.01584567 -75.38926456 513.0155485 -76.07543422 513.01524232 C-81.48415593 513.01279324 -86.89287756 513.01018173 -92.30159919 513.00755819 C-113.40186132 512.99745478 -134.50204389 513.00581111 -155.60229492 513.02905273 C-179.2951466 513.05510769 -202.98795688 513.06792847 -226.6808272 513.06086498 C-239.23078001 513.05736555 -251.78066747 513.05965246 -264.33061028 513.07711601 C-275.01409145 513.09179739 -285.69746124 513.09252683 -296.38094013 513.0750451 C-301.83556904 513.06649916 -307.28999865 513.06447279 -312.74461746 513.07969666 C-317.73296169 513.0934472 -322.72093406 513.08890578 -327.70925624 513.06945742 C-329.51878049 513.06566729 -331.32833385 513.06870506 -333.1378324 513.07906907 C-335.58846743 513.09211272 -338.03779476 513.08077022 -340.48837185 513.06307125 C-341.1989617 513.07272176 -341.90955155 513.08237227 -342.64167443 513.09231523 C-346.03380982 513.04164622 -347.72788066 512.7756146 -350.43407637 510.6562143 C-352.12304886 508.39797782 -352.56794203 507.34882129 -352.5625 504.5625 C-352.58441406 503.9025 -352.60632813 503.2425 -352.62890625 502.5625 C-351.63667277 499.40707427 -349.71456047 498.35652654 -347 496.5625 C-343.86206055 496.10839844 -343.86206055 496.10839844 -340.38671875 496.171875 C-339.13955078 496.18476563 -337.89238281 496.19765625 -336.60742188 496.2109375 C-335.31384766 496.24445313 -334.02027344 496.27796875 -332.6875 496.3125 C-331.37458984 496.33054687 -330.06167969 496.34859375 -328.70898438 496.3671875 C-325.47191512 496.41427214 -322.23632947 496.48002958 -319 496.5625 C-319.02618408 495.63501953 -319.05236816 494.70753906 -319.0793457 493.75195312 C-319.16507016 490.27783385 -319.22748759 486.80485414 -319.2746582 483.33007812 C-319.29965007 481.83250077 -319.33365627 480.33504349 -319.37719727 478.83789062 C-319.80170507 463.85526227 -319.80170507 463.85526227 -315.43066406 457.97045898 C-310.03770158 452.66308447 -304.03169398 451.44598289 -296.72192383 451.40136719 C-295.4499263 451.39175964 -294.17792877 451.3821521 -292.86738586 451.37225342 C-291.48060283 451.36740378 -290.09381769 451.36312536 -288.70703125 451.359375 C-288.00481634 451.35654762 -287.30260143 451.35372025 -286.57910728 451.35080719 C-282.85994467 451.33583357 -279.14082063 451.32659377 -275.42163086 451.32226562 C-271.59985569 451.31679669 -267.77843961 451.29279724 -263.95677662 451.26429367 C-261.00116485 451.24556409 -258.04563761 451.24045615 -255.08997154 451.23892975 C-253.6823093 451.23592378 -252.27464781 451.22796564 -250.86704445 451.21474457 C-232.27140697 451.05260925 -232.27140697 451.05260925 -225.4375 457.75 C-224.633125 458.678125 -223.82875 459.60625 -223 460.5625 C-222.98598145 458.85320312 -222.98598145 458.85320312 -222.97167969 457.109375 C-222.93158945 452.85231472 -222.86577905 448.59596273 -222.79248047 444.33935547 C-222.76438069 442.50253447 -222.74311182 440.66559503 -222.72900391 438.82861328 C-222.70742103 436.17679686 -222.66069501 433.52638815 -222.609375 430.875 C-222.60814636 430.06321289 -222.60691772 429.25142578 -222.60565186 428.41503906 C-222.42237815 421.16346562 -220.27554016 415.9414738 -215.25 410.6875 C-207.1219513 405.37300662 -197.83580722 406.32129573 -188.5 406.4375 C-187.09115219 406.44754931 -185.68229745 406.45667171 -184.2734375 406.46484375 C-180.8487795 406.48830031 -177.42448061 406.52112616 -174 406.5625 C-173.90428711 405.88517822 -173.80857422 405.20785645 -173.70996094 404.51000977 C-172.83508026 400.87781086 -171.30123716 397.72377361 -169.640625 394.40234375 C-169.29961761 393.7078009 -168.95861023 393.01325806 -168.60726929 392.29766846 C-167.87399091 390.80503774 -167.13822202 389.31362843 -166.40020752 387.82333374 C-164.45472609 383.89360578 -162.52817158 379.95463147 -160.6015625 376.015625 C-160.01820633 374.82413094 -160.01820633 374.82413094 -159.42306519 373.60856628 C-155.16362655 364.88767195 -151.08096371 356.08786255 -147.02441406 347.27124023 C-146.53424805 346.20591064 -146.04408203 345.14058105 -145.5390625 344.04296875 C-145.11834473 343.12410889 -144.69762695 342.20524902 -144.26416016 341.25854492 C-143 338.5625 -143 338.5625 -141.40380859 335.7199707 C-138.69548101 329.62835319 -138.9129717 323.32926166 -138.93981934 316.77865601 C-139.03663333 286.18700626 -134.79645611 258.87962374 -126.1875 229.625 C-125.9630508 228.8608717 -125.73860161 228.09674339 -125.50735092 227.30945969 C-122.47386498 217.01645169 -119.28180805 206.77884303 -116 196.5625 C-115.67729126 195.54668854 -115.35458252 194.53087708 -115.02209473 193.48428345 C-114.20997116 190.93178724 -113.38810943 188.38282707 -112.55859375 185.8359375 C-112.33769577 185.14923477 -112.11679779 184.46253204 -111.88920593 183.75502014 C-109.49193581 176.57343392 -106.22148021 170.9282168 -100 166.5625 C-100.87011719 166.35947266 -100.87011719 166.35947266 -101.7578125 166.15234375 C-102.53898438 165.93707031 -103.32015625 165.72179687 -104.125 165.5 C-104.89070312 165.30277344 -105.65640625 165.10554687 -106.4453125 164.90234375 C-113.10349686 161.41036021 -116.53352135 154.28015841 -119.8125 147.8125 C-120.20630859 147.05839844 -120.60011719 146.30429688 -121.00585938 145.52734375 C-124.27200749 139.21914001 -126.39798593 133.61603023 -124.421875 126.47265625 C-121.55098678 119.67387096 -116.04183269 116.44482081 -109.55078125 113.421875 C-106.78568928 112.49029731 -104.53827419 112.22923745 -101.625 112.1875 C-100.73039063 112.15914063 -99.83578125 112.13078125 -98.9140625 112.1015625 C-94.27999833 112.83456461 -90.58327261 114.56574654 -87.66503906 118.24609375 C-86.44466637 120.20679211 -85.36260043 122.19324498 -84.3125 124.25 C-83.9316626 124.96607422 -83.5508252 125.68214844 -83.15844727 126.41992188 C-82.08491087 128.45753967 -81.03989535 130.50756946 -80 132.5625 C-79.27683594 133.93341797 -79.27683594 133.93341797 -78.5390625 135.33203125 C-76.08451078 140.30206328 -75.44626545 144.02515454 -76 149.5625 C-76.62923296 151.24365677 -77.28946458 152.91405782 -78 154.5625 C-77.09773682 154.08071289 -76.19547363 153.59892578 -75.26586914 153.10253906 C-68.61816593 149.55420869 -61.96739661 146.01183647 -55.30859375 142.484375 C-53.99933909 141.79038319 -52.69009439 141.09637262 -51.38085938 140.40234375 C-49.42344173 139.36474067 -47.46584069 138.32749314 -45.50756836 137.29150391 C-36.79196805 132.6797604 -28.11482457 128.00148745 -19.46118164 123.27441406 C-18.45078072 122.72286652 -17.44037979 122.17131897 -16.39936066 121.60305786 C-13.93272659 120.2565354 -11.46627709 118.90967614 -9 117.5625 C-8.99780016 116.69447313 -8.99780016 116.69447313 -8.99555588 115.80891037 C-8.95850615 101.72900904 -8.89951607 87.64934267 -8.81609726 73.5696373 C-8.77628568 66.76077631 -8.74390408 59.95203124 -8.72900391 53.14306641 C-8.71460949 46.57474727 -8.67952269 40.00675069 -8.63169098 33.43857574 C-8.61682843 30.92993538 -8.60895621 28.42124375 -8.60811615 25.91255951 C-8.60575948 22.40453068 -8.57878304 18.89750511 -8.54589844 15.38964844 C-8.5509288 14.34739609 -8.55595917 13.30514374 -8.56114197 12.23130798 C-8.45880641 5.19726605 -8.45880641 5.19726605 -6.09088135 1.92120361 C-3.85005868 0.46506462 -2.65408447 -0.00518376 0 0 Z M-14.96875 156.5 C-16.00306152 157.13993896 -17.03737305 157.77987793 -18.10302734 158.43920898 C-19.23568229 159.14644327 -20.36799827 159.85422065 -21.5 160.5625 C-23.85589219 162.03396491 -26.21270174 163.50394647 -28.5703125 164.97265625 C-29.17726959 165.35132339 -29.78422668 165.72999054 -30.40957642 166.12013245 C-34.09101462 168.40745681 -37.80048595 170.63608338 -41.5479126 172.81356812 C-43.92723182 174.1966417 -46.29613124 175.59706748 -48.66479492 176.99829102 C-50.3404287 177.97975074 -52.03047994 178.93646238 -53.72070312 179.89257812 C-55.26274414 180.81006836 -55.26274414 180.81006836 -56.8359375 181.74609375 C-57.73876465 182.26743896 -58.6415918 182.78878418 -59.57177734 183.32592773 C-63.07437863 186.552082 -64.34272627 190.15929434 -66 194.5625 C-66.34269928 195.45824234 -66.68539856 196.35398468 -67.03848267 197.27687073 C-69.43386426 203.67580171 -71.66692256 210.132659 -73.89453125 216.59155273 C-74.71735361 218.95439161 -75.55569935 221.31187969 -76.40917969 223.66381836 C-77.64629824 227.0777806 -78.83176754 230.50600109 -80.0078125 233.94140625 C-80.39808624 234.98744522 -80.78835999 236.03348419 -81.19046021 237.11122131 C-83.09844593 242.5324225 -83.09844593 242.5324225 -81.95066833 247.93473816 C-80.42410909 250.00000987 -78.82534918 251.7598408 -77 253.5625 C-75.97725333 254.75716252 -74.96167394 255.95804216 -73.95703125 257.16796875 C-72.91119731 258.36403206 -71.86295616 259.55799415 -70.8125 260.75 C-69.6700945 262.05947861 -68.52817604 263.36938226 -67.38671875 264.6796875 C-66.82001465 265.32905273 -66.25331055 265.97841797 -65.66943359 266.64746094 C-44.03261046 291.46747274 -44.03261046 291.46747274 -45 308.5625 C-45.75957719 317.23378434 -46.90552967 325.86604919 -48 334.5 C-48.28989406 336.84039194 -48.57896306 339.18088623 -48.8671875 341.52148438 C-49.56862079 347.20303751 -50.28021454 352.88324424 -51 358.5625 C-50.11957031 358.67207031 -49.23914063 358.78164063 -48.33203125 358.89453125 C-47.17058594 359.05308594 -46.00914062 359.21164062 -44.8125 359.375 C-43.08966797 359.60123047 -43.08966797 359.60123047 -41.33203125 359.83203125 C-37.96837279 360.56943352 -35.86106672 361.70763437 -33 363.5625 C-32.34 363.5625 -31.68 363.5625 -31 363.5625 C-30.566875 364.490625 -30.566875 364.490625 -30.125 365.4375 C-29.06279958 367.69575765 -29.06279958 367.69575765 -27 369.5625 C-26.99857498 368.69077148 -26.99714996 367.81904297 -26.99568176 366.92089844 C-26.97780891 358.68208402 -26.9360688 350.44380385 -26.86790943 342.20524597 C-26.83370376 337.97025553 -26.80853953 333.73562337 -26.80444336 329.50048828 C-26.80014649 325.40878576 -26.77157023 321.31789055 -26.72656822 317.22644043 C-26.71363728 315.67009189 -26.70926988 314.11364651 -26.71384621 312.55725098 C-26.74691484 297.88808001 -26.74691484 297.88808001 -22.45951843 291.97705078 C-18.30097414 287.94663092 -13.55953819 286.67440764 -8 285.5625 C-8 242.0025 -8 198.4425 -8 153.5625 C-10.9210169 153.5625 -12.49555557 154.96058046 -14.96875 156.5 Z M-92 295.5625 C-92.2630896 297.15735229 -92.2630896 297.15735229 -92.53149414 298.78442383 C-93.19795718 302.78294515 -93.89739655 306.77514372 -94.60620117 310.76635742 C-94.90668971 312.48423868 -95.19858471 314.20364878 -95.48120117 315.92456055 C-97.23028902 326.53322564 -99.15990635 334.94359809 -106 343.5625 C-106.54422607 344.29315674 -107.08845215 345.02381348 -107.64916992 345.77661133 C-109.25126326 347.9027425 -110.89833008 349.98470364 -112.5625 352.0625 C-117.49703665 358.31149969 -122.30669191 364.63036623 -127 371.0625 C-132.28433518 378.30308412 -137.71121274 385.41309582 -143.29492188 392.42578125 C-146.87084484 396.95613205 -150.04839554 401.60217626 -153 406.5625 C-151.85402344 406.66046875 -150.70804688 406.7584375 -149.52734375 406.859375 C-147.99731172 407.00956219 -146.4673681 407.16065205 -144.9375 407.3125 C-144.18533203 407.374375 -143.43316406 407.43625 -142.65820312 407.5 C-135.06778595 408.28861477 -130.33962636 411.03390517 -125 416.5625 C-124.98018066 415.39267578 -124.96036133 414.22285156 -124.93994141 413.01757812 C-124.86347389 408.64888138 -124.77482197 404.28049996 -124.68261719 399.91210938 C-124.64449662 398.02675636 -124.60961519 396.14133479 -124.578125 394.25585938 C-124.53210468 391.53490821 -124.47417386 388.81442207 -124.4140625 386.09375 C-124.40251129 385.26008911 -124.39096008 384.42642822 -124.37905884 383.56750488 C-124.17453549 375.33059401 -123.24010086 368.52526304 -117 362.5625 C-111.48734382 359.65312699 -106.96011698 359.09907992 -100.78515625 359.05078125 C-99.92941513 359.03283005 -99.07367401 359.01487885 -98.19200134 358.99638367 C-95.48221639 358.94257969 -92.7726045 358.90848187 -90.0625 358.875 C-88.21547086 358.84180044 -86.36846448 358.80730836 -84.52148438 358.77148438 C-80.01444842 358.68687078 -75.50746112 358.61991787 -71 358.5625 C-70.87730513 349.31385056 -71.56319025 340.24824043 -72.43432617 331.04785156 C-72.60369219 329.2179799 -72.76346149 327.38719565 -72.91381836 325.55566406 C-73.13346381 322.8836688 -73.38185626 320.21571421 -73.63671875 317.546875 C-73.69840744 316.73426208 -73.76009613 315.92164917 -73.82365417 315.08441162 C-74.40078638 309.52273705 -75.82807933 306.54335417 -80 302.5625 C-83.06641315 300.40536205 -83.06641315 300.40536205 -86.3125 298.6875 C-87.91544922 297.79417969 -87.91544922 297.79417969 -89.55078125 296.8828125 C-90.35902344 296.44710938 -91.16726563 296.01140625 -92 295.5625 Z " fill="#618AAA" transform="translate(379,-0.5625)"/>
<path d="M0 0 C0.33 0 0.66 0 1 0 C1 65.34 1 130.68 1 198 C-112.06460478 199.15372046 -112.06460478 199.15372046 -146.31277895 199.10139394 C-151.51592093 199.09471955 -156.7190651 199.09452469 -161.92221069 199.09336853 C-171.58397046 199.09037501 -181.24571759 199.08234171 -190.90747201 199.07201904 C-201.98812936 199.0604621 -213.06878763 199.0552526 -224.14944959 199.05032361 C-246.76630653 199.04013379 -269.38315244 199.02279367 -292 199 C-292.12447553 194.44687658 -292.21474409 189.89476346 -292.2746582 185.34033203 C-292.29965732 183.79425788 -292.33366902 182.24830018 -292.37719727 180.70263672 C-292.80176743 165.22830306 -292.80176743 165.22830306 -288.43066406 159.39038086 C-283.0032806 154.11581621 -277.04374939 152.88355647 -269.72192383 152.83886719 C-268.4499263 152.82925964 -267.17792877 152.8196521 -265.86738586 152.80975342 C-264.48060283 152.80490378 -263.09381769 152.80062536 -261.70703125 152.796875 C-260.65370889 152.79263393 -260.65370889 152.79263393 -259.57910728 152.78830719 C-255.85994467 152.77333357 -252.14082063 152.76409377 -248.42163086 152.75976562 C-244.59985569 152.75429669 -240.77843961 152.73029724 -236.95677662 152.70179367 C-234.00116485 152.68306409 -231.04563761 152.67795615 -228.08997154 152.67642975 C-226.6823093 152.67342378 -225.27464781 152.66546564 -223.86704445 152.65224457 C-205.27140697 152.49010925 -205.27140697 152.49010925 -198.4375 159.1875 C-197.633125 160.115625 -196.82875 161.04375 -196 162 C-195.9906543 160.86046875 -195.98130859 159.7209375 -195.97167969 158.546875 C-195.93158945 154.28981472 -195.86577905 150.03346273 -195.79248047 145.77685547 C-195.76438069 143.94003447 -195.74311182 142.10309503 -195.72900391 140.26611328 C-195.70742103 137.61429686 -195.66069501 134.96388815 -195.609375 132.3125 C-195.60814636 131.50071289 -195.60691772 130.68892578 -195.60565186 129.85253906 C-195.42237815 122.60096562 -193.27554016 117.3789738 -188.25 112.125 C-180.46109425 107.03225393 -171.75034526 107.69295259 -162.75390625 107.69921875 C-161.37442396 107.69532325 -159.99494286 107.69098685 -158.61546326 107.68623352 C-155.73505756 107.6788061 -152.85477451 107.67903735 -149.97436523 107.68432617 C-146.30512237 107.69011939 -142.63638454 107.6731769 -138.96722507 107.6499815 C-136.12140528 107.63516536 -133.27570498 107.63438303 -130.42985344 107.63749123 C-128.42648464 107.63673667 -126.42313423 107.62293217 -124.41981506 107.60881042 C-115.13653655 107.6556385 -106.95172492 108.26551648 -100 115 C-99.67 115.66 -99.34 116.32 -99 117 C-98.98018066 115.86046875 -98.96036133 114.7209375 -98.93994141 113.546875 C-98.86345511 109.28998972 -98.77480639 105.03342723 -98.68261719 100.77685547 C-98.64450427 98.94000658 -98.60962161 97.10308754 -98.578125 95.26611328 C-98.53208774 92.61465506 -98.47416016 89.96367244 -98.4140625 87.3125 C-98.40251129 86.50071289 -98.39096008 85.68892578 -98.37905884 84.85253906 C-98.21375599 78.36174208 -97.81315341 71.25535905 -93.3125 66.1875 C-92.62607422 65.37345703 -92.62607422 65.37345703 -91.92578125 64.54296875 C-87.03613054 60.62529729 -82.12170463 59.62413906 -75.98242188 59.61181641 C-75.31964737 59.60655945 -74.65687286 59.60130249 -73.97401428 59.59588623 C-71.80534582 59.58279217 -69.63742459 59.59138576 -67.46875 59.6015625 C-65.9485256 59.5995387 -64.42830215 59.59662472 -62.90808105 59.59286499 C-59.7307811 59.588456 -56.55373514 59.59482638 -53.37646484 59.60888672 C-49.31799854 59.625978 -45.26012755 59.61612911 -41.20168304 59.59816933 C-38.06512015 59.58729271 -34.92869677 59.59079552 -31.79212952 59.5985527 C-30.2963097 59.60054401 -28.80047692 59.59813327 -27.30467224 59.59111404 C-25.20863626 59.58343506 -23.11354437 59.59519174 -21.01757812 59.61181641 C-19.82845825 59.61420319 -18.63933838 59.61658997 -17.41418457 59.61904907 C-10.70076416 60.36812508 -6.44128424 63.03621173 -2 68 C-1.67 68.33 -1.34 68.66 -1 69 C-0.67 46.23 -0.34 23.46 0 0 Z " fill="#6C96B3" transform="translate(352,298)"/>
<path d="M0 0 C0.33 0 0.66 0 1 0 C1 39.93 1 79.86 1 121 C-63.35 121 -127.7 121 -194 121 C-194 88 -194 88 -189 80 C-183.08056878 75.94986285 -178.75864406 74.88181631 -171.72192383 74.83886719 C-170.4499263 74.82925964 -169.17792877 74.8196521 -167.86738586 74.80975342 C-166.48060283 74.80490378 -165.09381769 74.80062536 -163.70703125 74.796875 C-162.65370889 74.79263393 -162.65370889 74.79263393 -161.57910728 74.78830719 C-157.85994467 74.77333357 -154.14082063 74.76409377 -150.42163086 74.75976562 C-146.59985569 74.75429669 -142.77843961 74.73029724 -138.95677662 74.70179367 C-136.00116485 74.68306409 -133.04563761 74.67795615 -130.08997154 74.67642975 C-128.6823093 74.67342378 -127.27464781 74.66546564 -125.86704445 74.65224457 C-107.27140697 74.49010925 -107.27140697 74.49010925 -100.4375 81.1875 C-99.633125 82.115625 -98.82875 83.04375 -98 84 C-97.9906543 82.86046875 -97.98130859 81.7209375 -97.97167969 80.546875 C-97.93158945 76.28981472 -97.86577905 72.03346273 -97.79248047 67.77685547 C-97.76438069 65.94003447 -97.74311182 64.10309503 -97.72900391 62.26611328 C-97.70742103 59.61429686 -97.66069501 56.96388815 -97.609375 54.3125 C-97.60814636 53.50071289 -97.60691772 52.68892578 -97.60565186 51.85253906 C-97.42237815 44.60096562 -95.27554016 39.3789738 -90.25 34.125 C-82.46109425 29.03225393 -73.75034526 29.69295259 -64.75390625 29.69921875 C-63.37442396 29.69532325 -61.99494286 29.69098685 -60.61546326 29.68623352 C-57.73505756 29.6788061 -54.85477451 29.67903735 -51.97436523 29.68432617 C-48.30512237 29.69011939 -44.63638454 29.6731769 -40.96722507 29.6499815 C-38.12140528 29.63516536 -35.27570498 29.63438303 -32.42985344 29.63749123 C-30.42648464 29.63673667 -28.42313423 29.62293217 -26.41981506 29.60881042 C-17.13653655 29.6556385 -8.95172492 30.26551648 -2 37 C-1.67 37.66 -1.34 38.32 -1 39 C-0.67 26.13 -0.34 13.26 0 0 Z " fill="#88B3C8" transform="translate(254,376)"/>
<path d="M0 0 C0.99 -0.03287109 0.99 -0.03287109 2 -0.06640625 C4 0.5625 4 0.5625 8 5.5625 C8 10.1825 8 14.8025 8 19.5625 C38.69 19.5625 69.38 19.5625 101 19.5625 C102 23.5625 102 23.5625 101.06640625 25.23828125 C96.97279613 29.69340499 92.63205653 33.67395174 88 37.5625 C86.86545238 38.52422897 85.73137341 39.48651095 84.59765625 40.44921875 C81.40336988 43.15952234 78.2029551 45.86244791 75 48.5625 C75.40388617 52.98453581 78.41476198 55.13495811 81.5625 57.875 C82.10463135 58.358479 82.6467627 58.84195801 83.20532227 59.34008789 C84.79654053 60.75573647 86.3973639 62.15980693 88 63.5625 C88.79148437 64.26632813 89.58296875 64.97015625 90.3984375 65.6953125 C93.18489576 68.1614882 95.95093097 70.52595923 98.9375 72.75 C101 74.5625 101 74.5625 101.9375 76.625 C102 78.5625 102 78.5625 100 81.5625 C97.03954501 81.84858931 94.2892287 81.94052086 91.32763672 81.90307617 C89.9812059 81.90373329 89.9812059 81.90373329 88.60757446 81.90440369 C85.63139324 81.90230845 82.65577069 81.87894287 79.6796875 81.85546875 C77.61988635 81.84987541 75.56008122 81.84560408 73.50027466 81.84260559 C68.07172682 81.83113623 62.64341875 81.80165105 57.21496582 81.76849365 C51.6784998 81.73783781 46.14199513 81.72410986 40.60546875 81.70898438 C29.73685673 81.67678331 18.86848579 81.62399831 8 81.5625 C8 90.8025 8 100.0425 8 109.5625 C-3 115.5625 -3 115.5625 -5 115.5625 C-5.04125 116.490625 -5.0825 117.41875 -5.125 118.375 C-6.63993291 128.48820077 -13.23095726 135.53438176 -21 141.5625 C-24.70201812 144.05242528 -28.49023741 146.36853365 -32.334198 148.63241577 C-34.16803554 149.71285519 -35.99400817 150.80564473 -37.81860352 151.90161133 C-42.68901856 154.82324169 -47.57390941 157.72025823 -52.46337891 160.60986328 C-54.62181642 161.8872018 -56.77785838 163.16859946 -58.93115234 164.45458984 C-60.88251639 165.619957 -62.83959623 166.77582573 -64.80322266 167.92041016 C-75.59659797 174.37346651 -78.16411846 180.85802935 -81.875 192.625 C-89.51816659 216.7121781 -102.10965867 235.67256882 -125 247.5625 C-126.65913867 247.93148207 -128.3254737 248.27120883 -130 248.5625 C-127.23947153 236.14999204 -123.95511046 223.92604779 -120.41870117 211.71313477 C-119.55926384 208.73880031 -118.71199892 205.7611668 -117.86523438 202.78320312 C-109.28329978 172.861882 -109.28329978 172.861882 -100 166.5625 C-100.87011719 166.35947266 -100.87011719 166.35947266 -101.7578125 166.15234375 C-102.53898437 165.93707031 -103.32015625 165.72179687 -104.125 165.5 C-104.89070313 165.30277344 -105.65640625 165.10554687 -106.4453125 164.90234375 C-113.10349686 161.41036021 -116.53352135 154.28015841 -119.8125 147.8125 C-120.20630859 147.05839844 -120.60011719 146.30429688 -121.00585938 145.52734375 C-124.27200749 139.21914001 -126.39798593 133.61603023 -124.421875 126.47265625 C-121.55098678 119.67387096 -116.04183269 116.44482081 -109.55078125 113.421875 C-106.78568928 112.49029731 -104.53827419 112.22923745 -101.625 112.1875 C-100.73039062 112.15914063 -99.83578125 112.13078125 -98.9140625 112.1015625 C-94.27999833 112.83456461 -90.58327261 114.56574654 -87.66503906 118.24609375 C-86.44466637 120.20679211 -85.36260043 122.19324498 -84.3125 124.25 C-83.9316626 124.96607422 -83.5508252 125.68214844 -83.15844727 126.41992188 C-82.08491087 128.45753967 -81.03989535 130.50756946 -80 132.5625 C-79.27683594 133.93341797 -79.27683594 133.93341797 -78.5390625 135.33203125 C-76.08451078 140.30206328 -75.44626545 144.02515454 -76 149.5625 C-76.62923296 151.24365677 -77.28946458 152.91405782 -78 154.5625 C-76.64660522 153.83981934 -76.64660522 153.83981934 -75.26586914 153.10253906 C-68.61816593 149.55420869 -61.96739661 146.01183647 -55.30859375 142.484375 C-53.99933909 141.79038319 -52.69009439 141.09637262 -51.38085938 140.40234375 C-49.42344173 139.36474067 -47.46584069 138.32749314 -45.50756836 137.29150391 C-36.79196805 132.6797604 -28.11482457 128.00148745 -19.46118164 123.27441406 C-18.45078072 122.72286652 -17.44037979 122.17131897 -16.39936066 121.60305786 C-13.93272659 120.2565354 -11.46627709 118.90967614 -9 117.5625 C-8.99853344 116.98381542 -8.99706688 116.40513084 -8.99555588 115.80891037 C-8.95850615 101.72900904 -8.89951607 87.64934267 -8.81609726 73.5696373 C-8.77628568 66.76077631 -8.74390408 59.95203124 -8.72900391 53.14306641 C-8.71460949 46.57474727 -8.67952269 40.00675069 -8.63169098 33.43857574 C-8.61682843 30.92993538 -8.60895621 28.42124375 -8.60811615 25.91255951 C-8.60575948 22.40453068 -8.57878304 18.89750511 -8.54589844 15.38964844 C-8.55344398 13.82626991 -8.55344398 13.82626991 -8.56114197 12.23130798 C-8.45880641 5.19726605 -8.45880641 5.19726605 -6.09088135 1.92120361 C-3.85005868 0.46506462 -2.65408447 -0.00518376 0 0 Z " fill="#83D9FE" transform="translate(379,-0.5625)"/>
<path d="M0 0 C1.50463867 1.31591797 1.50463867 1.31591797 2.91796875 2.9921875 C3.44543701 3.60924561 3.97290527 4.22630371 4.51635742 4.86206055 C5.06783447 5.52633057 5.61931152 6.19060059 6.1875 6.875 C6.76411377 7.5553833 7.34072754 8.2357666 7.93481445 8.93676758 C11.9453989 13.68477666 15.90238749 18.47829999 19.80859375 23.3125 C21.81887889 25.77787643 23.86650447 28.20441867 25.92944336 30.62548828 C27.98533274 33.05728348 29.9912161 35.52926579 32 38 C32.57492187 38.66257812 33.14984375 39.32515625 33.7421875 40.0078125 C41.80005583 50.52401354 36.02951282 70.9362335 34.49145508 82.95678711 C34.05776254 86.34956116 33.63819866 89.74387014 33.22070312 93.13867188 C32.95132862 95.29697597 32.68117564 97.45518308 32.41015625 99.61328125 C32.22103416 101.13493645 32.22103416 101.13493645 32.02809143 102.68733215 C31.90804245 103.61978256 31.78799347 104.55223297 31.66430664 105.51293945 C31.50775352 106.74413261 31.50775352 106.74413261 31.34803772 108.00019836 C31 110 31 110 30 112 C26.85418577 112.02888514 23.70840531 112.04675923 20.5625 112.0625 C19.66466797 112.07087891 18.76683594 112.07925781 17.84179688 112.08789062 C16.56079102 112.09272461 16.56079102 112.09272461 15.25390625 112.09765625 C14.46314697 112.10289307 13.6723877 112.10812988 12.85766602 112.11352539 C11 112 11 112 10 111 C9.78099707 109.46489063 9.6231949 107.92098103 9.4909668 106.37597656 C9.3602906 104.89874115 9.3602906 104.89874115 9.22697449 103.3916626 C9.13531509 102.31882019 9.0436557 101.24597778 8.94921875 100.140625 C8.74362036 97.88794934 8.53721454 95.63534726 8.33007812 93.3828125 C8.00627982 89.81734882 7.68764767 86.25172946 7.38305664 82.68457031 C7.08761332 79.25161894 6.77018837 75.82127135 6.44921875 72.390625 C6.3208387 70.79350677 6.3208387 70.79350677 6.18986511 69.16412354 C5.4855691 61.76025069 5.4855691 61.76025069 1 56 C-1.7722271 53.94178415 -1.7722271 53.94178415 -4.75 52.1875 C-5.73484375 51.58292969 -6.7196875 50.97835937 -7.734375 50.35546875 C-8.48203125 49.90816406 -9.2296875 49.46085937 -10 49 C-10.17539307 50.03294189 -10.35078613 51.06588379 -10.53149414 52.13012695 C-11.19825984 56.016904 -11.89761466 59.8972601 -12.60620117 63.77661133 C-12.9065789 65.44596577 -13.19847806 67.11687169 -13.48120117 68.78930664 C-15.25632834 79.24909478 -17.28824063 87.47822721 -24 96 C-24.54422607 96.73130127 -25.08845215 97.46260254 -25.64916992 98.21606445 C-27.25183962 100.3410099 -28.89870282 102.42266902 -30.5625 104.5 C-35.497054 110.74902166 -40.30613631 117.0682561 -45 123.5 C-51.28249449 132.09439581 -57.70012869 140.58580993 -64.37817383 148.87817383 C-66.06189769 151.01564226 -66.06189769 151.01564226 -67.58081055 153.50268555 C-71.62668523 159.61321072 -71.62668523 159.61321072 -75.52075195 160.70996094 C-78.37963016 160.88517515 -81.08313187 160.79077141 -83.9375 160.5625 C-84.90751953 160.52189453 -85.87753906 160.48128906 -86.87695312 160.43945312 C-89.25657247 160.33395276 -91.62560194 160.18667153 -94 160 C-91.11636362 152.31402141 -87.64461028 144.9560122 -84.02893066 137.59371948 C-82.36083081 134.19562709 -80.7049692 130.79160095 -79.05078125 127.38671875 C-78.7137619 126.69306717 -78.37674255 125.99941559 -78.0295105 125.28474426 C-73.95524397 116.87607247 -70.03469218 108.39687839 -66.12524414 99.91064453 C-65.62500732 98.82509277 -65.12477051 97.73954102 -64.609375 96.62109375 C-64.17592773 95.6767749 -63.74248047 94.73245605 -63.29589844 93.75952148 C-62 91 -62 91 -60.39941406 88.14868164 C-57.09698195 80.71820939 -57.64775141 71.75866627 -57.24609375 63.75 C-57.18092056 62.49614502 -57.11574738 61.24229004 -57.04859924 59.95043945 C-56.87719968 56.64294479 -56.70830215 53.33533521 -56.54064941 50.02764893 C-56.36841764 46.64202075 -56.19285108 43.25656561 -56.01757812 39.87109375 C-55.67533514 33.2475499 -55.33639399 26.62384335 -55 20 C-54.35021179 19.72947311 -53.70042358 19.45894623 -53.03094482 19.18022156 C-49.99450454 17.91592146 -46.95818487 16.65133199 -43.921875 15.38671875 C-42.82373474 14.92947922 -41.72559448 14.47223969 -40.59417725 14.00114441 C-34.68760368 11.54066954 -28.78575649 9.06977674 -22.890625 6.58203125 C-20.67730165 5.65833086 -18.46377096 4.7351271 -16.25 3.8125 C-15.10402344 3.32458984 -13.95804687 2.83667969 -12.77734375 2.33398438 C-11.68035156 1.87958984 -10.58335937 1.42519531 -9.453125 0.95703125 C-8.49567383 0.55460205 -7.53822266 0.15217285 -6.55175781 -0.26245117 C-3.78172769 -1.06308847 -2.61808741 -1.15059788 0 0 Z " fill="#4E7593" transform="translate(298,247)"/>
<path d="M0 0 C0.75927387 -0.00521457 1.51854775 -0.01042914 2.30082992 -0.01580173 C4.85394721 -0.02842959 7.40608572 -0.01246036 9.95917416 0.00330162 C11.80442814 0.00012602 13.6496798 -0.00480061 15.49492496 -0.0113312 C20.57252219 -0.02418114 25.6498014 -0.01200452 30.72737777 0.00419736 C36.20050234 0.01733433 41.67359086 0.00745815 47.14671993 0.00043297 C57.87104015 -0.00965969 68.5952372 0.00164291 79.31954212 0.02013357 C91.80022042 0.04088074 104.28087194 0.04076175 116.76156425 0.03978841 C139.69787012 0.03875642 162.63412298 0.05884212 185.57040531 0.08879329 C206.51656821 0.11604486 227.46268545 0.12851573 248.40886593 0.12717247 C249.75392835 0.12709165 251.09899076 0.12701093 252.44405318 0.12693031 C253.44150505 0.12686926 253.44150505 0.12686926 254.45910746 0.12680697 C279.72032584 0.12528563 304.98152237 0.13659127 330.24273391 0.15499217 C338.94925598 0.16103215 347.65577409 0.16315215 356.36229801 0.16405678 C366.96702477 0.16541923 377.57171524 0.17432315 388.1764266 0.1927224 C393.59050697 0.20197406 399.00454083 0.20804361 404.41862965 0.20553398 C409.36979581 0.20335016 414.32085897 0.21034217 419.27200364 0.22483103 C421.06800671 0.22846908 422.86402036 0.22870726 424.66002388 0.22529645 C427.09206619 0.22118743 429.52376749 0.22925727 431.95578003 0.24050903 C432.66098515 0.2363984 433.36619027 0.23228776 434.09276524 0.22805256 C437.69162056 0.25868556 440.39055113 0.45872341 443.41496944 2.49777794 C445.51176347 5.19365597 445.41007765 6.59072194 445.22746944 10.06027794 C444.14845754 14.6253283 444.14845754 14.6253283 441.41496944 16.49777794 C438.87175451 16.79263693 436.57308588 16.90213618 434.02918243 16.87809467 C432.88613548 16.88508455 432.88613548 16.88508455 431.71999666 16.89221564 C429.14562017 16.90424427 426.57176382 16.89474022 423.99738216 16.88545799 C422.14148032 16.88962748 420.28558101 16.89510286 418.42968649 16.9017778 C413.31342842 16.91630176 408.19733048 16.9119661 403.08106339 16.90461099 C397.56972506 16.89989873 392.05842236 16.91237189 386.5470953 16.9226284 C375.74365644 16.93985996 364.94027562 16.94064741 354.13682658 16.9354155 C345.35927462 16.93138068 336.58173986 16.93280915 327.80418873 16.93816376 C325.93316193 16.93928639 325.93316193 16.93928639 324.02433662 16.9404317 C321.49067414 16.94196312 318.95701166 16.94350146 316.42334919 16.94504667 C299.40145835 16.95488166 282.37957334 16.95903262 265.35768127 16.95142078 C264.69169308 16.95112361 264.02570488 16.95082644 263.33953523 16.95052026 C257.93081352 16.94807118 252.52209189 16.94545967 247.11337026 16.94283613 C226.01310812 16.93273272 204.91292556 16.94108905 183.81267452 16.96433067 C160.11982284 16.99038563 136.42701256 17.00320641 112.73414224 16.99614292 C100.18418943 16.99264349 87.63430198 16.9949304 75.08435917 17.01239395 C64.400878 17.02707533 53.7175082 17.02780477 43.03402931 17.01032304 C37.5794004 17.00177709 32.12497079 16.99975072 26.67035198 17.01497459 C21.68200776 17.02872514 16.69403538 17.02418372 11.70571321 17.00473536 C9.89618895 17.00094523 8.08663559 17.003983 6.27713705 17.01434701 C3.82650202 17.02739065 1.37717468 17.01604816 -1.0734024 16.99834919 C-1.78399226 17.0079997 -2.49458211 17.01765021 -3.22670498 17.02759317 C-6.61884038 16.97692416 -8.31291121 16.71089254 -11.01910692 14.59149224 C-12.70807942 12.33325576 -13.15297259 11.28409923 -13.14753056 8.49777794 C-13.16944462 7.83777794 -13.19135868 7.17777794 -13.21393681 6.49777794 C-11.29789953 0.40454139 -5.51147786 -0.07791554 0 0 Z " fill="#2F4F65" transform="translate(39.5850305557251,495.5022220611572)"/>
<path d="M0 0 C-0.33 57.75 -0.66 115.5 -1 175 C-6.28 175 -11.56 175 -17 175 C-17 131.44 -17 87.88 -17 43 C-33.05219825 52.62197329 -33.05219825 52.62197329 -49.0625 62.3125 C-49.97708984 62.86744141 -50.89167969 63.42238281 -51.83398438 63.99414062 C-53.66182718 65.10634745 -55.47977255 66.23500214 -57.28686523 67.38061523 C-60 69 -60 69 -62.87133789 70.27758789 C-69.93187044 73.74476518 -72.38210179 77.86716007 -74.92578125 85.01953125 C-76.12409335 88.59743282 -77.22355778 92.20007897 -78.3125 95.8125 C-78.88242173 97.60467915 -79.45596803 99.39570986 -80.03320312 101.18554688 C-82.26867792 108.16432388 -84.48467081 115.14224243 -86.47021484 122.19677734 C-86.952547 123.82266607 -87.43512037 125.44848326 -87.91796875 127.07421875 C-88.1113533 127.81742874 -88.30473785 128.56063873 -88.50398254 129.32637024 C-89.39811709 132.25883445 -90.12518473 134.33359499 -92.6086731 136.22543335 C-94.69916823 137.30596848 -96.80028828 138.16427268 -99 139 C-100.6494002 139.70141602 -102.29847355 140.40360098 -103.94726562 141.10644531 C-105.76562166 141.85020477 -107.58534452 142.59062922 -109.40625 143.328125 C-110.85420959 143.91892853 -110.85420959 143.91892853 -112.3314209 144.52166748 C-115.38642012 145.76739952 -118.44317106 147.00876555 -121.5 148.25 C-123.58345104 149.09866942 -125.66678558 149.9476249 -127.75 150.796875 C-132.83199087 152.86789314 -137.91542349 154.93533865 -143 157 C-144.82534989 150.62164668 -143.10583674 144.74030949 -140 139 C-136.73945372 136.18431671 -132.79164858 134.60813499 -128.8984375 132.8515625 C-112.71799829 125.54553856 -101.83097068 109.24630529 -95.61425781 93.17382812 C-93.80249531 88.30576348 -92.11908749 83.41375767 -90.578125 78.453125 C-90.33465332 77.69878174 -90.09118164 76.94443848 -89.84033203 76.16723633 C-89.38059622 74.73420998 -88.94215342 73.29408136 -88.53076172 71.84643555 C-85.43760762 62.26744777 -76.41487 57.76034582 -68.125 53.0625 C-66.18635959 51.93816198 -64.2489125 50.81176451 -62.3125 49.68359375 C-60.78496094 48.79583252 -60.78496094 48.79583252 -59.2265625 47.89013672 C-54.06336931 44.8655119 -48.93791561 41.78111815 -43.83050537 38.6635437 C-42.1681545 37.65127833 -40.50040031 36.64790316 -38.83251953 35.64477539 C-29.97748853 30.23045799 -22.50847606 25.40534716 -18.0625 15.8125 C-17.49660156 14.62269531 -16.93070312 13.43289062 -16.34765625 12.20703125 C-14.94663191 9.22721761 -14.94663191 9.22721761 -14.64453125 6.78125 C-13.58294144 3.84740179 -11.30101053 3.10276541 -8.625 1.6875 C-7.15933594 0.88892578 -7.15933594 0.88892578 -5.6640625 0.07421875 C-3 -1 -3 -1 0 0 Z " fill="#5FC9ED" transform="translate(388,110)"/>
<path d="M0 0 C33.33 0 66.66 0 101 0 C102 4 102 4 101.06640625 5.67578125 C96.97279613 10.13090499 92.63205653 14.11145174 88 18 C86.86545238 18.96172897 85.73137341 19.92401095 84.59765625 20.88671875 C81.40336988 23.59702234 78.2029551 26.29994791 75 29 C75.40388617 33.42203581 78.41476198 35.57245811 81.5625 38.3125 C82.10463135 38.795979 82.6467627 39.27945801 83.20532227 39.77758789 C84.79654053 41.19323647 86.3973639 42.59730693 88 44 C88.79148437 44.70382813 89.58296875 45.40765625 90.3984375 46.1328125 C93.18489576 48.5989882 95.95093097 50.96345923 98.9375 53.1875 C101 55 101 55 101.9375 57.0625 C102 59 102 59 100 62 C97.08126325 62.29152265 94.37506869 62.3884635 91.45458984 62.35644531 C90.56981964 62.35848969 89.68504944 62.36053406 88.77346802 62.36264038 C85.83575048 62.36565874 82.89858879 62.34713142 79.9609375 62.328125 C77.92029967 62.3250675 75.87965976 62.32319131 73.83901978 62.32244873 C69.55324361 62.31783813 65.26765454 62.30338952 60.98193359 62.28125 C55.50104758 62.25307429 50.02030969 62.24204969 44.53935814 62.2375679 C40.32018565 62.23339818 36.10104281 62.22356608 31.88188553 62.21169281 C29.86217102 62.20601165 27.84245372 62.20124593 25.82273483 62.19742584 C22.98903239 62.19050805 20.15544305 62.17684724 17.32177734 62.16113281 C16.4934137 62.16001495 15.66505005 62.15889709 14.81158447 62.15774536 C14.02937531 62.15203522 13.24716614 62.14632507 12.44125366 62.14044189 C11.77278601 62.13746723 11.10431835 62.13449257 10.4155941 62.13142776 C6.92846286 61.94169975 3.46532091 61.43316511 0 61 C0 40.87 0 20.74 0 0 Z " fill="#FCB659" transform="translate(379,19)"/>
<path d="M0 0 C1.27199753 -0.00960754 2.54399506 -0.01921509 3.85453796 -0.02911377 C5.241321 -0.0339634 6.62810613 -0.03824183 8.01489258 -0.04199219 C9.06821494 -0.04623325 9.06821494 -0.04623325 10.14281654 -0.05056 C13.86197916 -0.06553362 17.5811032 -0.07477342 21.30029297 -0.07910156 C25.12206814 -0.0845705 28.94348422 -0.10856995 32.76514721 -0.13707352 C35.72075898 -0.1558031 38.67628622 -0.16091104 41.63195229 -0.16243744 C43.03961453 -0.16544341 44.44727602 -0.17340155 45.85487938 -0.18662262 C60.69093781 -0.31597818 60.69093781 -0.31597818 67.72192383 3.16113281 C74.72192383 11.16113281 74.72192383 11.16113281 74.72192383 45.16113281 C42.71192383 45.16113281 10.70192383 45.16113281 -22.27807617 45.16113281 C-22.27807617 13.16113281 -22.27807617 13.16113281 -17.27807617 5.16113281 C-11.35864495 1.11099566 -7.03672023 0.04294913 0 0 Z " fill="#A6C7D2" transform="translate(82.278076171875,450.8388671875)"/>
<path d="M0 0 C7.72263398 7.6404783 14.88891898 15.7145271 21.703125 24.171875 C23.74822146 26.68998697 25.83176432 29.16599941 27.93603516 31.63427734 C29.99033255 34.06263855 31.99352118 36.53210096 34 39 C34.57492187 39.66257812 35.14984375 40.32515625 35.7421875 41.0078125 C43.80005583 51.52401354 38.02951282 71.9362335 36.49145508 83.95678711 C36.05776254 87.34956116 35.63819866 90.74387014 35.22070312 94.13867188 C34.95132862 96.29697597 34.68117564 98.45518308 34.41015625 100.61328125 C34.22103416 102.13493645 34.22103416 102.13493645 34.02809143 103.68733215 C33.90804245 104.61978256 33.78799347 105.55223297 33.66430664 106.51293945 C33.5599379 107.33373489 33.45556915 108.15453033 33.34803772 109.00019836 C33 111 33 111 32 113 C28.85418577 113.02888514 25.70840531 113.04675923 22.5625 113.0625 C21.21575195 113.07506836 21.21575195 113.07506836 19.84179688 113.08789062 C18.56079102 113.09272461 18.56079102 113.09272461 17.25390625 113.09765625 C16.46314697 113.10289307 15.6723877 113.10812988 14.85766602 113.11352539 C13 113 13 113 12 112 C11.78099707 110.46489063 11.6231949 108.92098103 11.4909668 107.37597656 C11.40384933 106.39115295 11.31673187 105.40632935 11.22697449 104.3916626 C11.13531509 103.31882019 11.0436557 102.24597778 10.94921875 101.140625 C10.74362036 98.88794934 10.53721454 96.63534726 10.33007812 94.3828125 C10.00627982 90.81734882 9.68764767 87.25172946 9.38305664 83.68457031 C9.08761332 80.25161894 8.77018837 76.82127135 8.44921875 73.390625 C8.36363205 72.32587952 8.27804535 71.26113403 8.18986511 70.16412354 C7.65713107 64.66195501 7.27325468 60.91547984 3 57 C0.25743682 55.04686258 0.25743682 55.04686258 -2.6875 53.375 C-7.89029073 50.32912781 -7.89029073 50.32912781 -9 47 C-8.77907815 44.88132324 -8.46790202 42.77165023 -8.109375 40.671875 C-7.89571289 39.40311523 -7.68205078 38.13435547 -7.46191406 36.82714844 C-7.22498601 35.46803325 -6.98767505 34.10898476 -6.75 32.75 C-6.51494481 31.3779904 -6.28024411 30.00592003 -6.04589844 28.63378906 C-1.71578208 3.43156416 -1.71578208 3.43156416 0 0 Z " fill="#38627C" transform="translate(296,246)"/>
<path d="M0 0 C0.33 0 0.66 0 1 0 C1 50.82 1 101.64 1 154 C-4.28 154 -9.56 154 -15 154 C-15.18532041 136.64958684 -15.32802058 119.29956989 -15.41449738 101.94839382 C-15.45572043 93.89160372 -15.51190405 85.83544045 -15.60351562 77.77905273 C-15.68334196 70.75570933 -15.73488624 63.73281992 -15.75270796 56.70903546 C-15.76312362 52.99090648 -15.78753583 49.27407608 -15.84584045 45.55636406 C-15.91046017 41.40214739 -15.91191382 37.25017676 -15.90820312 33.09545898 C-15.93696533 31.86762695 -15.96572754 30.63979492 -15.99536133 29.37475586 C-15.91603472 21.17240624 -15.91603472 21.17240624 -13.23031616 17.73503304 C-11.23158827 15.99352369 -9.16986459 14.51615709 -7 13 C-4.93749819 10.35690922 -4.93749819 10.35690922 -3.5625 7.75 C-2.85287109 6.50476563 -2.85287109 6.50476563 -2.12890625 5.234375 C-0.89426522 2.92540403 -0.89426522 2.92540403 0 0 Z " fill="#A6C7D3" transform="translate(386,131)"/>
<path d="M0 0 C0.89460938 -0.02835937 1.78921875 -0.05671875 2.7109375 -0.0859375 C7.34500167 0.64706461 11.04172739 2.37824654 13.95996094 6.05859375 C15.18033363 8.01929211 16.26239957 10.00574498 17.3125 12.0625 C17.6933374 12.77857422 18.0741748 13.49464844 18.46655273 14.23242188 C19.54008913 16.27003967 20.58510465 18.32006946 21.625 20.375 C22.34816406 21.74591797 22.34816406 21.74591797 23.0859375 23.14453125 C25.5401305 28.11383694 26.26045656 31.83744995 25.625 37.375 C23.157105 44.36736918 18.08288673 47.7181002 11.875 51.1875 C6.748544 53.62719894 2.23563125 54.42335324 -3.375 53.375 C-10.91605441 49.6044728 -14.3339404 42.9491299 -18.0625 35.75 C-18.46533203 34.986875 -18.86816406 34.22375 -19.28320312 33.4375 C-22.60617799 27.09212087 -24.792136 21.49775515 -22.796875 14.28515625 C-19.92598678 7.48637096 -14.41683269 4.25732081 -7.92578125 1.234375 C-5.16068928 0.30279731 -2.91327419 0.04173745 0 0 Z " fill="#FDCBAA" transform="translate(277.375,111.625)"/>
<path d="M0 0 C0.66 -0.02191406 1.32 -0.04382812 2 -0.06640625 C5.23282516 0.95016572 6.27550484 2.70868942 8 5.5625 C8.390625 9.11328125 8.390625 9.11328125 8.25 12.875 C8.21390625 14.12925781 8.1778125 15.38351563 8.140625 16.67578125 C8.07101562 18.10470703 8.07101562 18.10470703 8 19.5625 C5.36 19.5625 2.72 19.5625 0 19.5625 C0 39.6925 0 59.8225 0 80.5625 C2.64 80.5625 5.28 80.5625 8 80.5625 C8 90.1325 8 99.7025 8 109.5625 C5.73125 110.8825 3.4625 112.2025 1.125 113.5625 C0.41230957 113.98015625 -0.30038086 114.3978125 -1.03466797 114.828125 C-5.77777778 117.5625 -5.77777778 117.5625 -8 117.5625 C-8.0934352 102.89827836 -8.1639751 88.23409611 -8.20724869 73.5696373 C-8.22787534 66.76067912 -8.25599754 59.95190588 -8.30175781 53.14306641 C-8.34587951 46.57490702 -8.36912311 40.00688957 -8.37950897 33.43857574 C-8.38691248 30.92987286 -8.40136936 28.42118075 -8.42292023 25.91255951 C-8.45186289 22.40468922 -8.45595969 18.89761848 -8.45410156 15.38964844 C-8.46848267 14.34739609 -8.48286377 13.30514374 -8.49768066 12.23130798 C-8.45723379 5.19699711 -8.45723379 5.19699711 -6.09661865 1.92120361 C-3.8528944 0.46716892 -2.65522764 -0.00518599 0 0 Z " fill="#A7C6D1" transform="translate(379,-0.5625)"/>
</svg>
