<?xml version="1.0" encoding="UTF-8"?>
<svg version="1.1" xmlns="http://www.w3.org/2000/svg" width="740" height="415">
<path d="M0 0 C244.2 0 488.4 0 740 0 C740 136.95 740 273.9 740 415 C495.8 415 251.6 415 0 415 C0 278.05 0 141.1 0 0 Z " fill="#FDFDFD" transform="translate(0,0)"/>
<path d="M0 0 C1.84610263 2.76915395 2.36921233 3.9883895 2.96484375 7.11328125 C3.1237207 7.93932861 3.28259766 8.76537598 3.44628906 9.61645508 C3.60838867 10.5061499 3.77048828 11.39584473 3.9375 12.3125 C4.10862305 13.22862061 4.27974609 14.14474121 4.45605469 15.08862305 C6.32297987 25.34193606 7.70077598 35.66158948 9 46 C7 47 7 47 3.91015625 46.14453125 C2.62487965 45.7084703 1.34246059 45.26392662 0.0625 44.8125 C-0.93825562 44.46892456 -0.93825562 44.46892456 -1.95922852 44.1184082 C-7.66451194 42.14930392 -13.34349742 40.10501863 -19 38 C-19 39.32 -19 40.64 -19 42 C-19.66 42 -20.32 42 -21 42 C-21.28875 42.9075 -21.5775 43.815 -21.875 44.75 C-22.76531776 47.32202908 -23.71494413 49.61346766 -25 52 C-25.66 52 -26.32 52 -27 52 C-27 53.32 -27 54.64 -27 56 C-27.66 56 -28.32 56 -29 56 C-29 56.66 -29 57.32 -29 58 C-29.66 58 -30.32 58 -31 58 C-31.66 59.98 -32.32 61.96 -33 64 C-33.66 64 -34.32 64 -35 64 C-35 64.66 -35 65.32 -35 66 C-35.66 66 -36.32 66 -37 66 C-37 67.32 -37 68.64 -37 70 C-37.66 70 -38.32 70 -39 70 C-39 70.66 -39 71.32 -39 72 C-39.66 72 -40.32 72 -41 72 C-41.144375 72.61875 -41.28875 73.2375 -41.4375 73.875 C-42 76 -42 76 -43 78 C-43.66 78 -44.32 78 -45 78 C-45 78.66 -45 79.32 -45 80 C-45.66 80 -46.32 80 -47 80 C-47.144375 80.61875 -47.28875 81.2375 -47.4375 81.875 C-48 84 -48 84 -49 86 C-49.66 86 -50.32 86 -51 86 C-51 86.66 -51 87.32 -51 88 C-51.66 88 -52.32 88 -53 88 C-53 88.66 -53 89.32 -53 90 C-53.66 90 -54.32 90 -55 90 C-55 90.66 -55 91.32 -55 92 C-55.66 92 -56.32 92 -57 92 C-57 92.66 -57 93.32 -57 94 C-57.66 94 -58.32 94 -59 94 C-59 94.66 -59 95.32 -59 96 C-59.66 96 -60.32 96 -61 96 C-61 96.66 -61 97.32 -61 98 C-61.66 98 -62.32 98 -63 98 C-63 98.66 -63 99.32 -63 100 C-66 102 -66 102 -69 102 C-69 102.66 -69 103.32 -69 104 C-70.87237371 104.96345444 -72.7480299 105.92053102 -74.625 106.875 C-75.66914063 107.40867187 -76.71328125 107.94234375 -77.7890625 108.4921875 C-83.0162393 110.9467985 -87.20067217 112.27615847 -93 112 C-93 112.66 -93 113.32 -93 114 C-101.56364947 115.70728525 -109.77704029 116.31928772 -118.5 116.25 C-120.32724609 116.24202393 -120.32724609 116.24202393 -122.19140625 116.23388672 C-132.55140663 116.12631048 -142.73796525 115.3961952 -153 114 C-154.09828125 113.855625 -155.1965625 113.71125 -156.328125 113.5625 C-169.45579913 111.59685895 -182.28036112 107.70025858 -195 104 C-196.175625 103.67 -197.35125 103.34 -198.5625 103 C-209.23189389 100.00508242 -219.62861859 96.71583898 -229.8203125 92.34375 C-231.59013316 91.59581596 -233.36475561 90.85817125 -235.15551758 90.16186523 C-254.03578281 82.81690998 -271.8532966 73.23296176 -288 61 C-288.55268555 60.5870166 -289.10537109 60.1740332 -289.67480469 59.74853516 C-298.22638458 53.25466219 -305.70819412 45.48813214 -313.3125 37.9375 C-313.8310556 37.42448334 -314.34961121 36.91146667 -314.88388062 36.38290405 C-320.7106311 30.60162726 -326.25164199 24.73458576 -331.27026367 18.21948242 C-334.02781395 14.68117761 -337.0114229 11.34347063 -340 8 C-339.67 7.34 -339.34 6.68 -339 6 C-336.86872381 6.83838386 -334.74530565 7.6967462 -332.625 8.5625 C-330.84996094 9.27599609 -330.84996094 9.27599609 -329.0390625 10.00390625 C-324.90259865 11.88020833 -321.3984761 14.46629529 -317.72265625 17.11108398 C-312.89276762 20.46194915 -307.78913641 23.33669006 -302.6875 26.25 C-300.9708313 27.23214478 -300.9708313 27.23214478 -299.21948242 28.23413086 C-273.14551094 43.09787955 -246.0692571 56.58123118 -217.56103516 66.13964844 C-214.99515423 67.00162788 -212.44150511 67.89481429 -209.88671875 68.7890625 C-188.76988325 76.00643383 -165.38088598 82.10041876 -143 83 C-141.95875977 83.04237793 -140.91751953 83.08475586 -139.84472656 83.12841797 C-117.69384845 83.87462451 -96.087825 82.53786013 -75.328125 74.26953125 C-72.51388786 73.1960253 -69.96357226 72.4694208 -67 72 C-67 71.34 -67 70.68 -67 70 C-65.04414675 68.99515796 -63.08523763 67.99626195 -61.125 67 C-60.03445313 66.443125 -58.94390625 65.88625 -57.8203125 65.3125 C-55 64 -55 64 -53 64 C-53 63.34 -53 62.68 -53 62 C-51.02 61.34 -49.04 60.68 -47 60 C-47 59.34 -47 58.68 -47 58 C-41.58823529 54 -41.58823529 54 -39 54 C-39 53.34 -39 52.68 -39 52 C-38.34 52 -37.68 52 -37 52 C-37 51.34 -37 50.68 -37 50 C-36.34 50 -35.68 50 -35 50 C-35 49.34 -35 48.68 -35 48 C-34.34 48 -33.68 48 -33 48 C-33 47.34 -33 46.68 -33 46 C-32.34 46 -31.68 46 -31 46 C-31 45.34 -31 44.68 -31 44 C-30.34 44 -29.68 44 -29 44 C-29 43.34 -29 42.68 -29 42 C-28.34 42 -27.68 42 -27 42 C-27 41.34 -27 40.68 -27 40 C-26.34 40 -25.68 40 -25 40 C-25 39.34 -25 38.68 -25 38 C-24.34 38 -23.68 38 -23 38 C-23 37.34 -23 36.68 -23 36 C-22.34 36 -21.68 36 -21 36 C-21 35.34 -21 34.68 -21 34 C-20.34 34 -19.68 34 -19 34 C-18.855625 33.38125 -18.71125 32.7625 -18.5625 32.125 C-18 30 -18 30 -17 28 C-16.34 28 -15.68 28 -15 28 C-14.34 26.02 -13.68 24.04 -13 22 C-12.34 22 -11.68 22 -11 22 C-11 21.34 -11 20.68 -11 20 C-10.34 20 -9.68 20 -9 20 C-8.88398438 19.44054687 -8.76796875 18.88109375 -8.6484375 18.3046875 C-7.91813362 15.70902913 -6.85733528 13.52245227 -5.625 11.125 C-5.18027344 10.25359375 -4.73554687 9.3821875 -4.27734375 8.484375 C-3.64505859 7.25460938 -3.64505859 7.25460938 -3 6 C-2.39393269 4.79261886 -1.78936179 3.58448303 -1.1875 2.375 C-0.795625 1.59125 -0.40375 0.8075 0 0 Z " fill="#F28D14" transform="translate(517,174)"/>
<path d="M0 0 C0.66 0 1.32 0 2 0 C2.75313038 1.62355155 3.50228585 3.24894694 4.25 4.875 C4.66765625 5.77992187 5.0853125 6.68484375 5.515625 7.6171875 C9.07465567 15.72803108 11.90812768 23.73238306 14.125 32.3125 C14.62483867 34.22598495 15.12735428 36.13877305 15.6328125 38.05078125 C15.84824707 38.88262939 16.06368164 39.71447754 16.28564453 40.5715332 C17.03649864 43.12407791 18.00597631 45.53379161 19 48 C21.27862404 63.15137023 13.10365628 80.21385686 4.4777832 92.25878906 C-4.2673421 103.77056665 -15.2741333 113.13718241 -28 120 C-28.99 120 -29.98 120 -31 120 C-31 120.66 -31 121.32 -31 122 C-50.52906935 129.90242379 -72.08083986 138.35998834 -93.5 138.0625 C-94.3559375 138.05347656 -95.211875 138.04445312 -96.09375 138.03515625 C-96.7228125 138.02355469 -97.351875 138.01195312 -98 138 C-96.66000502 134.993182 -95.20154709 133.00237391 -92.8125 130.75 C-90.29873261 128.3716346 -87.99671561 125.87713786 -85.73046875 123.265625 C-81.49002819 118.38108829 -77.05304287 113.69517103 -72.60546875 109 C-68.81070724 104.97739567 -65.1152031 100.8905995 -61.50561523 96.70068359 C-60.25260348 95.28533093 -58.916394 93.94417877 -57.5625 92.625 C-55.76896376 91.13544499 -55.76896376 91.13544499 -56 89 C-80.49066211 83.4583384 -80.49066211 83.4583384 -105 78 C-104 76 -104 76 -101.83984375 75.2109375 C-100.88207031 74.93507813 -99.92429687 74.65921875 -98.9375 74.375 C-90.83099331 71.77516176 -83.49582617 67.98154692 -76 64 C-75.3395166 63.65308105 -74.6790332 63.30616211 -73.99853516 62.94873047 C-48.20885207 49.31258666 -13.01721254 27.07335753 0 0 Z " fill="#2D576A" transform="translate(493,93)"/>
<path d="M0 0 C7.69947865 2.42366198 14.20563543 5.52779891 20.875 10 C31.24187198 16.95015105 42.06882451 22.98843637 53 29 C53.78536133 29.43666992 54.57072266 29.87333984 55.37988281 30.32324219 C66.00671648 36.21354428 76.93901508 41.3635616 88 46.375 C88.66290039 46.67622772 89.32580078 46.97745544 90.00878906 47.28781128 C97.89229821 50.85996523 105.80260394 54.19865493 114 57 C112.515 57.495 112.515 57.495 111 58 C111 58.66 111 59.32 111 60 C109.865625 60.144375 108.73125 60.28875 107.5625 60.4375 C104.19222799 60.61171478 104.19222799 60.61171478 103 62 C100.66666667 62.33333333 98.33333333 62.66666667 96 63 C95.67 63.33 95.34 63.66 95 64 C92.77914053 64.40299039 90.54749786 64.74721817 88.3125 65.0625 C86.48138672 65.32740234 86.48138672 65.32740234 84.61328125 65.59765625 C81.36727152 65.95910382 78.26145738 66.07514879 75 66 C75 66.66 75 67.32 75 68 C77.64 68 80.28 68 83 68 C83 68.66 83 69.32 83 70 C83.66 70 84.32 70 85 70 C85 69.34 85 68.68 85 68 C85.66 68 86.32 68 87 68 C87 70.31 87 72.62 87 75 C75.15951838 71.40977739 64.7109383 64.49280528 55 57 C53.96931396 56.22253418 52.93862793 55.44506836 51.87670898 54.64404297 C43.78202513 48.47895366 36.41229861 41.85771529 29.27490234 34.61108398 C27.61332554 32.92565797 25.93854018 31.25423099 24.26171875 29.58398438 C18.72060058 24.02766745 13.48060004 18.4104199 8.69677734 12.17211914 C6.35843383 9.17870299 3.81751712 6.39050972 1.25 3.59375 C0 2 0 2 0 0 Z " fill="#E34426" transform="translate(177,180)"/>
<path d="M0 0 C0.66 0 1.32 0 2 0 C2.75313038 1.62355155 3.50228585 3.24894694 4.25 4.875 C4.66765625 5.77992187 5.0853125 6.68484375 5.515625 7.6171875 C9.07465567 15.72803108 11.90812768 23.73238306 14.125 32.3125 C14.62483867 34.22598495 15.12735428 36.13877305 15.6328125 38.05078125 C15.95596436 39.29855347 15.95596436 39.29855347 16.28564453 40.5715332 C17.03643073 43.12384704 18.01052459 45.53227843 19 48 C19.81419502 54.4536929 18.46503728 60.73434951 17 67 C16.76539063 66.49597656 16.53078125 65.99195313 16.2890625 65.47265625 C8.95437284 51.40338789 -1.761624 31.825584 -15 23 C-14.49549288 18.76609713 -12.0842984 16.71890027 -9.1875 13.75 C-5.06629091 9.35758116 -2.30085099 5.54295921 0 0 Z " fill="#4DBCC4" transform="translate(493,93)"/>
<path d="M0 0 C1.84610263 2.76915395 2.36921233 3.9883895 2.96484375 7.11328125 C3.1237207 7.93932861 3.28259766 8.76537598 3.44628906 9.61645508 C3.60838867 10.5061499 3.77048828 11.39584473 3.9375 12.3125 C4.19418457 13.68668091 4.19418457 13.68668091 4.45605469 15.08862305 C6.32297987 25.34193606 7.70077598 35.66158948 9 46 C7 47 7 47 3.83984375 46.14453125 C2.53603829 45.70948133 1.23538527 45.26490572 -0.0625 44.8125 C-1.07098999 44.46892456 -1.07098999 44.46892456 -2.09985352 44.1184082 C-7.20419307 42.34994182 -12.11575094 40.31359166 -17 38 C-16.01 35.03 -16.01 35.03 -15 32 C-14.34 32 -13.68 32 -13 32 C-12.9175 31.21625 -12.835 30.4325 -12.75 29.625 C-11.00872448 21.208835 -6.91208846 13.58945162 -3 6 C-2.39391 4.79263025 -1.7893943 3.58446685 -1.1875 2.375 C-0.795625 1.59125 -0.40375 0.8075 0 0 Z " fill="#326677" transform="translate(517,174)"/>
<path d="M0 0 C0.66 0 1.32 0 2 0 C0 6 0 6 -2 12 C-2.66 12 -3.32 12 -4 12 C-4.144375 12.61875 -4.28875 13.2375 -4.4375 13.875 C-5 16 -5 16 -6 18 C-6.66 18 -7.32 18 -8 18 C-8 19.32 -8 20.64 -8 22 C-8.66 22 -9.32 22 -10 22 C-10.28875 22.9075 -10.5775 23.815 -10.875 24.75 C-11.76531776 27.32202908 -12.71494413 29.61346766 -14 32 C-14.66 32 -15.32 32 -16 32 C-16 33.32 -16 34.64 -16 36 C-16.66 36 -17.32 36 -18 36 C-18 36.66 -18 37.32 -18 38 C-19.98 38 -21.96 38 -24 38 C-24 37.34 -24 36.68 -24 36 C-23.34 36 -22.68 36 -22 36 C-22 35.34 -22 34.68 -22 34 C-21.34 34 -20.68 34 -20 34 C-20 32.68 -20 31.36 -20 30 C-23.1691746 31.88342747 -23.1691746 31.88342747 -25.375 35.0625 C-28.08405267 38.09405894 -29.05023297 38.77429903 -33 39 C-33.33 39.99 -33.66 40.98 -34 42 C-35.9375 42.8125 -35.9375 42.8125 -38 43 C-38.66 42.34 -39.32 41.68 -40 41 C-38.02 40.505 -38.02 40.505 -36 40 C-36 39.34 -36 38.68 -36 38 C-30.58823529 34 -30.58823529 34 -28 34 C-28 33.34 -28 32.68 -28 32 C-27.34 32 -26.68 32 -26 32 C-26 31.34 -26 30.68 -26 30 C-25.34 30 -24.68 30 -24 30 C-24 29.34 -24 28.68 -24 28 C-23.34 28 -22.68 28 -22 28 C-22 27.34 -22 26.68 -22 26 C-21.34 26 -20.68 26 -20 26 C-20 25.34 -20 24.68 -20 24 C-19.34 24 -18.68 24 -18 24 C-18 23.34 -18 22.68 -18 22 C-17.34 22 -16.68 22 -16 22 C-16 21.34 -16 20.68 -16 20 C-15.34 20 -14.68 20 -14 20 C-14 19.34 -14 18.68 -14 18 C-13.34 18 -12.68 18 -12 18 C-12 17.34 -12 16.68 -12 16 C-11.34 16 -10.68 16 -10 16 C-10 15.34 -10 14.68 -10 14 C-9.34 14 -8.68 14 -8 14 C-7.855625 13.38125 -7.71125 12.7625 -7.5625 12.125 C-7 10 -7 10 -6 8 C-5.34 8 -4.68 8 -4 8 C-3.34 6.02 -2.68 4.04 -2 2 C-1.34 2 -0.68 2 0 2 C0 1.34 0 0.68 0 0 Z " fill="#F4AE36" transform="translate(506,194)"/>
<path d="M0 0 C4.84688192 0.78175515 9.3766367 2.39844278 14 4 C14 4.66 14 5.32 14 6 C14.84304687 6.10441406 15.68609375 6.20882812 16.5546875 6.31640625 C20.37752285 7.07490533 23.56244802 8.36397542 27.125 9.9375 C28.92324219 10.72447266 28.92324219 10.72447266 30.7578125 11.52734375 C33.20256567 12.63779188 35.61356554 13.77116434 38 15 C37.34 16.65 36.68 18.3 36 20 C37.32 20.66 38.64 21.32 40 22 C39.01 22.495 39.01 22.495 38 23 C35.40261144 21.80991266 32.93849426 20.55810137 30.4375 19.1875 C29.68895752 18.78313721 28.94041504 18.37877441 28.16918945 17.9621582 C22.63201968 14.94729081 17.14234081 11.84869964 11.6875 8.6875 C10.977146 8.27975342 10.26679199 7.87200684 9.53491211 7.4519043 C5.88019044 5.30193831 2.85076264 3.2025277 0 0 Z " fill="#F6CA86" transform="translate(198,190)"/>
<path d="M0 0 C2.4597119 0.56762582 4.74210426 1.26715753 7.125 2.125 C9.90854197 3.3325042 9.90854197 3.3325042 12 2 C12.33 2.66 12.66 3.32 13 4 C13.99 4 14.98 4 16 4 C16.66 4.33 17.32 4.66 18 5 C19.54023996 5.06950541 21.08334988 5.08452357 22.625 5.0625 C23.44226563 5.05347656 24.25953125 5.04445312 25.1015625 5.03515625 C25.72804688 5.02355469 26.35453125 5.01195312 27 5 C26.67 5.99 26.34 6.98 26 8 C31.445 8.495 31.445 8.495 37 9 C37 9.33 37 9.66 37 10 C38.7015625 10.2165625 38.7015625 10.2165625 40.4375 10.4375 C44 11 44 11 45 12 C46.57606197 12.34731736 48.16137078 12.65314477 49.75 12.9375 C53.37081118 13.62742534 56.64043824 14.43220451 60 16 C56.01917825 17.53226003 52.44444294 16.49346214 48.4375 15.59375 C47.69715515 15.4335437 46.9568103 15.2733374 46.19403076 15.10827637 C43.79337133 14.58343991 41.39659841 14.04305862 39 13.5 C38.1898645 13.31937012 37.379729 13.13874023 36.54504395 12.95263672 C24.02660099 10.15017653 11.92175906 6.79266696 0 2 C0 1.34 0 0.68 0 0 Z " fill="#F8D99D" transform="translate(300,239)"/>
<path d="M0 0 C1.21236328 0.01353516 1.21236328 0.01353516 2.44921875 0.02734375 C3.37154297 0.04474609 3.37154297 0.04474609 4.3125 0.0625 C3.9825 0.7225 3.6525 1.3825 3.3125 2.0625 C0.36328125 2.6953125 0.36328125 2.6953125 -3.375 3.1875 C-4.59574219 3.35507813 -5.81648438 3.52265625 -7.07421875 3.6953125 C-10.31360204 4.02450388 -13.43526451 4.13244055 -16.6875 4.0625 C-16.6875 4.7225 -16.6875 5.3825 -16.6875 6.0625 C-14.0475 6.0625 -11.4075 6.0625 -8.6875 6.0625 C-8.6875 6.7225 -8.6875 7.3825 -8.6875 8.0625 C-8.0275 8.0625 -7.3675 8.0625 -6.6875 8.0625 C-6.6875 7.4025 -6.6875 6.7425 -6.6875 6.0625 C-6.0275 6.0625 -5.3675 6.0625 -4.6875 6.0625 C-4.6875 8.3725 -4.6875 10.6825 -4.6875 13.0625 C-10.85106805 11.3966708 -16.17009656 8.18444714 -21.6875 5.0625 C-21.3575 4.0725 -21.0275 3.0825 -20.6875 2.0625 C-19.33205078 1.97162109 -19.33205078 1.97162109 -17.94921875 1.87890625 C-16.17998047 1.75322266 -16.17998047 1.75322266 -14.375 1.625 C-13.20324219 1.54378906 -12.03148437 1.46257812 -10.82421875 1.37890625 C-7.028675 0.99604318 -3.85468872 -0.05586505 0 0 Z " fill="#EA601B" transform="translate(268.6875,241.9375)"/>
<path d="M0 0 C5.28 0 10.56 0 16 0 C16 0.33 16 0.66 16 1 C-0.75109241 4.07561041 -17.00398077 4.34743933 -34 4 C-34 3.34 -34 2.68 -34 2 C-22.78 2 -11.56 2 0 2 C0 1.34 0 0.68 0 0 Z " fill="#F8EBCE" transform="translate(408,254)"/>
<path d="M0 0 C2.12744999 0.78505901 4.25189674 1.5782606 6.375 2.375 C7.55835938 2.81585938 8.74171875 3.25671875 9.9609375 3.7109375 C13 5 13 5 15 7 C14.01 7.66 13.02 8.32 12 9 C11.67 9.99 11.34 10.98 11 12 C11.66 12 12.32 12 13 12 C13 12.66 13 13.32 13 14 C13.66 14 14.32 14 15 14 C14.67 14.99 14.34 15.98 14 17 C10.60580737 13.71529745 7.38092265 10.29302848 4.1875 6.8125 C3.39730469 5.95269531 2.60710937 5.09289062 1.79296875 4.20703125 C0 2 0 2 0 0 Z " fill="#DB362C" transform="translate(177,180)"/>
<path d="M0 0 C3.3 0 6.6 0 10 0 C10 0.66 10 1.32 10 2 C10.66 2 11.32 2 12 2 C12 2.66 12 3.32 12 4 C13.32 4 14.64 4 16 4 C16 4.66 16 5.32 16 6 C17.32 6 18.64 6 20 6 C20 6.66 20 7.32 20 8 C22.64 8 25.28 8 28 8 C28 8.66 28 9.32 28 10 C27.34 10 26.68 10 26 10 C26 10.66 26 11.32 26 12 C17.00221406 9.08973689 8.38809546 5.35535726 0 1 C0 0.67 0 0.34 0 0 Z " fill="#E46B2E" transform="translate(266,256)"/>
<path d="M0 0 C0.79953138 3.28696233 1.09658936 4.71023192 0 8 C-0.66 8 -1.32 8 -2 8 C-2 7.34 -2 6.68 -2 6 C-10.39438147 8.02702899 -10.39438147 8.02702899 -18 12 C-18.66 12 -19.32 12 -20 12 C-20 11.34 -20 10.68 -20 10 C-20.66 9.67 -21.32 9.34 -22 9 C-20.08717875 8.15787744 -18.16957527 7.32661136 -16.25 6.5 C-15.18265625 6.0359375 -14.1153125 5.571875 -13.015625 5.09375 C-10 4 -10 4 -6 4 C-6 3.34 -6 2.68 -6 2 C-2.25 0 -2.25 0 0 0 Z " fill="#F3A831" transform="translate(456,242)"/>
<path d="M0 0 C0 1.65 0 3.3 0 5 C2.475 5.495 2.475 5.495 5 6 C5 6.66 5 7.32 5 8 C5.99 8.33 6.98 8.66 8 9 C0.1753241 8.32545897 -7.34556614 6.73123042 -15 5 C-14 3 -14 3 -11.34765625 1.89453125 C-9.72150391 1.35892578 -9.72150391 1.35892578 -8.0625 0.8125 C-6.44021484 0.26529297 -6.44021484 0.26529297 -4.78515625 -0.29296875 C-2 -1 -2 -1 0 0 Z " fill="#202D39" transform="translate(403,166)"/>
<path d="M0 0 C1.32 0 2.64 0 4 0 C4 1.32 4 2.64 4 4 C2.824375 4.12375 2.824375 4.12375 1.625 4.25 C-1.11631339 4.70995268 -1.11631339 4.70995268 -2.125 6.875 C-2.558125 7.926875 -2.558125 7.926875 -3 9 C-5.31453856 11.9758353 -7.31137465 12.50153711 -11 13 C-11.33 13.99 -11.66 14.98 -12 16 C-13.9375 16.8125 -13.9375 16.8125 -16 17 C-16.66 16.34 -17.32 15.68 -18 15 C-16.68 14.67 -15.36 14.34 -14 14 C-14 13.34 -14 12.68 -14 12 C-8.58823529 8 -8.58823529 8 -6 8 C-6 7.34 -6 6.68 -6 6 C-5.34 6 -4.68 6 -4 6 C-4 5.34 -4 4.68 -4 4 C-3.34 4 -2.68 4 -2 4 C-2 3.34 -2 2.68 -2 2 C-1.34 2 -0.68 2 0 2 C0 1.34 0 0.68 0 0 Z " fill="#F6AB29" transform="translate(484,220)"/>
<path d="M0 0 C2.65837761 0.45572188 4.95712169 0.98130945 7.4375 2.0625 C10.42308583 3.1547875 12.84529623 3.14673041 16 3 C16 3.99 16 4.98 16 6 C16.7425 6.0825 17.485 6.165 18.25 6.25 C21.51221354 7.1396946 22.80954878 8.48503749 25 11 C24.67 11.66 24.34 12.32 24 13 C20.18274131 11.21834576 16.37207052 9.42302739 12.5625 7.625 C11.47388672 7.11710938 10.38527344 6.60921875 9.26367188 6.0859375 C7.71196289 5.35117188 7.71196289 5.35117188 6.12890625 4.6015625 C5.17056885 4.15119629 4.21223145 3.70083008 3.22485352 3.23681641 C1 2 1 2 0 0 Z " fill="#F6CF83" transform="translate(238,213)"/>
<path d="M0 0 C0.66 0 1.32 0 2 0 C0.66666667 4 -0.66666667 8 -2 12 C-2.66 12 -3.32 12 -4 12 C-4.12375 12.61875 -4.2475 13.2375 -4.375 13.875 C-5 16 -5 16 -7 18 C-8 17 -8 17 -8.1875 14.125 C-8 11 -8 11 -6 8 C-5.34 8 -4.68 8 -4 8 C-3.34 6.02 -2.68 4.04 -2 2 C-1.34 2 -0.68 2 0 2 C0 1.34 0 0.68 0 0 Z " fill="#ECA22E" transform="translate(506,194)"/>
<path d="M0 0 C1.65 0 3.3 0 5 0 C5 0.33 5 0.66 5 1 C6.134375 1.144375 7.26875 1.28875 8.4375 1.4375 C12 2 12 2 13 3 C14.57606197 3.34731736 16.16137078 3.65314477 17.75 3.9375 C21.37081118 4.62742534 24.64043824 5.43220451 28 7 C24.60834465 8.13120927 22.32267822 7.84979549 18.8671875 7.0390625 C17.89652344 6.81476563 16.92585938 6.59046875 15.92578125 6.359375 C14.91902344 6.11703125 13.91226562 5.8746875 12.875 5.625 C11.86050781 5.39039063 10.84601563 5.15578125 9.80078125 4.9140625 C2.32342575 3.16171288 2.32342575 3.16171288 0 2 C0 1.34 0 0.68 0 0 Z " fill="#F8DBA2" transform="translate(332,248)"/>
<path d="M0 0 C0.33 0.66 0.66 1.32 1 2 C2.32 2 3.64 2 5 2 C4.690625 2.556875 4.38125 3.11375 4.0625 3.6875 C2.94238179 6.12540433 2.43962636 8.36224186 2 11 C-0.96175123 10.38722388 -2.38058783 9.74627478 -5 8 C-4.45773019 4.20411134 -2.79872437 2.52788007 0 0 Z " fill="#37B1B3" transform="translate(483,108)"/>
<path d="M0 0 C0.33 0 0.66 0 1 0 C1.198128 3.56630408 1.20219927 6.09710096 -1 9 C-1.94875 9.309375 -2.8975 9.61875 -3.875 9.9375 C-7.64139517 11.21807436 -8.67193489 12.86915382 -11 16 C-11.99 16.33 -12.98 16.66 -14 17 C-12.7080083 14.18763616 -11.31751572 12.03181101 -9.21484375 9.765625 C-8.68439453 9.19199219 -8.15394531 8.61835938 -7.60742188 8.02734375 C-7.05634766 7.44082031 -6.50527344 6.85429687 -5.9375 6.25 C-5.38255859 5.64800781 -4.82761719 5.04601562 -4.25585938 4.42578125 C-2.86137451 2.92768667 -1.43343009 1.46087426 0 0 Z " fill="#213642" transform="translate(423,199)"/>
<path d="M0 0 C0.99 0.33 1.98 0.66 3 1 C1.64564617 4.12646853 0.22498698 5.89291353 -2.4375 8 C-4.58401178 9.74736703 -6.070436 11.09913215 -7.6875 13.375 C-8.120625 13.91125 -8.55375 14.4475 -9 15 C-10.32 15 -11.64 15 -13 15 C-11.45873646 11.14243754 -9.05481733 9.05723851 -5.9375 6.375 C-2.48348875 3.56907909 -2.48348875 3.56907909 0 0 Z " fill="#F7EEEC" transform="translate(493,189)"/>
<path d="M0 0 C1.32 0.66 2.64 1.32 4 2 C-3.15602434 5.89733133 -11.00820899 6.25779971 -19 6 C-19 5.34 -19 4.68 -19 4 C-12.6221448 2.82706111 -6.49678438 1.70469162 0 2 C0 1.34 0 0.68 0 0 Z " fill="#14262D" transform="translate(423,224)"/>
<path d="M0 0 C0.66 0 1.32 0 2 0 C2 0.66 2 1.32 2 2 C3.65 1.34 5.3 0.68 7 0 C7.33 0.66 7.66 1.32 8 2 C6.2335343 3.0076952 4.46166177 4.00591714 2.6875 5 C1.20830078 5.8353125 1.20830078 5.8353125 -0.30078125 6.6875 C-3 8 -3 8 -6 8 C-6 8.66 -6 9.32 -6 10 C-7.65 9.67 -9.3 9.34 -11 9 C-9.68 8.67 -8.36 8.34 -7 8 C-7 7.34 -7 6.68 -7 6 C-6.01 6 -5.02 6 -4 6 C-4 5.34 -4 4.68 -4 4 C-2.68 4 -1.36 4 0 4 C0 2.68 0 1.36 0 0 Z " fill="#F8F1DF" transform="translate(456,236)"/>
<path d="M0 0 C2.64 0 5.28 0 8 0 C8 0.66 8 1.32 8 2 C7.34 2 6.68 2 6 2 C6 2.66 6 3.32 6 4 C5.34 4 4.68 4 4 4 C3.855625 4.61875 3.71125 5.2375 3.5625 5.875 C3 8 3 8 2 10 C1.34 10 0.68 10 0 10 C0 8.68 0 7.36 0 6 C0.66 6 1.32 6 2 6 C2 5.34 2 4.68 2 4 C1.34 4 0.68 4 0 4 C0 2.68 0 1.36 0 0 Z " fill="#F2B02B" transform="translate(472,242)"/>
<path d="M0 0 C3.71918446 -0.20662136 5.75358541 0.25565783 9 2 C9.70640625 2.35320312 10.4128125 2.70640625 11.140625 3.0703125 C14.0703125 4.53515625 14.0703125 4.53515625 17 6 C17 6.66 17 7.32 17 8 C10.89262558 6.23536928 4.92566493 4.30442525 -1 2 C-0.67 1.34 -0.34 0.68 0 0 Z " fill="#F2D491" transform="translate(281,232)"/>
<path d="M0 0 C-5.51807931 3.52543956 -9.20974861 4.12790251 -15.75 4.0625 C-16.92046875 4.05347656 -18.0909375 4.04445312 -19.296875 4.03515625 C-20.18890625 4.02355469 -21.0809375 4.01195312 -22 4 C-22 3.67 -22 3.34 -22 3 C-19.08559401 2.3013821 -16.16913913 1.6157969 -13.25 0.9375 C-12.425 0.73833984 -11.6 0.53917969 -10.75 0.33398438 C-9.55117188 0.05844727 -9.55117188 0.05844727 -8.328125 -0.22265625 C-7.5949707 -0.39547119 -6.86181641 -0.56828613 -6.10644531 -0.74633789 C-3.79867217 -1.02424428 -2.20083963 -0.69809241 0 0 Z " fill="#E0DAC8" transform="translate(435,226)"/>
<path d="M0 0 C0.33 0.99 0.66 1.98 1 3 C0.154375 3.7425 -0.69125 4.485 -1.5625 5.25 C-2.7690625 6.61125 -2.7690625 6.61125 -4 8 C-3.95502158 10.27523089 -3.95502158 10.27523089 -3 12 C-5.31 12 -7.62 12 -10 12 C-8.52278578 8.54798361 -6.56205999 6.35038064 -3.875 3.75 C-3.15054687 3.04359375 -2.42609375 2.3371875 -1.6796875 1.609375 C-1.12539063 1.07828125 -0.57109375 0.5471875 0 0 Z " fill="#171D1F" transform="translate(405,219)"/>
<path d="M0 0 C0.6953125 1.7734375 0.6953125 1.7734375 1 4 C-1.90226521 8.2722786 -5.98715141 11.63285948 -11 13 C-7.61227103 8.30840284 -4.21814817 3.9700218 0 0 Z " fill="#253743" transform="translate(435,186)"/>
<path d="M0 0 C0.66 0 1.32 0 2 0 C3.06775224 1.96466413 4.06553465 3.96855359 5 6 C4.67 6.66 4.34 7.32 4 8 C3.01 8.33 2.02 8.66 1 9 C0.67 7.68 0.34 6.36 0 5 C-0.33 6.98 -0.66 8.96 -1 11 C-1.66 11 -2.32 11 -3 11 C-4 8 -4 8 -3.22265625 5.95703125 C-2.83980469 5.24933594 -2.45695312 4.54164062 -2.0625 3.8125 C-1.68222656 3.09707031 -1.30195313 2.38164063 -0.91015625 1.64453125 C-0.60980469 1.10183594 -0.30945313 0.55914062 0 0 Z " fill="#5CB5C0" transform="translate(493,93)"/>
<path d="M0 0 C0.66 0 1.32 0 2 0 C3 3 3 3 1.6875 5.6875 C1.130625 6.450625 0.57375 7.21375 0 8 C-0.66 8 -1.32 8 -2 8 C-2 7.34 -2 6.68 -2 6 C-2.66 6 -3.32 6 -4 6 C-4 6.66 -4 7.32 -4 8 C-4.66 8 -5.32 8 -6 8 C-6.33 7.01 -6.66 6.02 -7 5 C-2.25 2 -2.25 2 0 2 C0 1.34 0 0.68 0 0 Z " fill="#F3AC35" transform="translate(464,236)"/>
<path d="M0 0 C2.16874252 0.50603992 3.99967627 0.99983813 6 2 C6 2.66 6 3.32 6 4 C7.66666667 4.33333333 9.33333333 4.66666667 11 5 C12.66666667 5.33333333 14.33333333 5.66666667 16 6 C16 6.99 16 7.98 16 9 C10.53262809 7.25192871 5.24175152 5.34205919 0 3 C0 2.01 0 1.02 0 0 Z " fill="#F9CD88" transform="translate(264,224)"/>
<path d="M0 0 C2.31 0 4.62 0 7 0 C7 0.66 7 1.32 7 2 C9.64 2 12.28 2 15 2 C15 2.66 15 3.32 15 4 C14.34 4 13.68 4 13 4 C13 4.66 13 5.32 13 6 C8.52761347 4.58192622 4.28853694 2.88695626 0 1 C0 0.67 0 0.34 0 0 Z " fill="#E9782B" transform="translate(279,262)"/>
<path d="M0 0 C2.97 0.99 5.94 1.98 9 3 C8.01 3.33 7.02 3.66 6 4 C6 4.66 6 5.32 6 6 C3.69 6 1.38 6 -1 6 C-0.67 4.02 -0.34 2.04 0 0 Z " fill="#E56125" transform="translate(282,234)"/>
<path d="M0 0 C3.3 0 6.6 0 10 0 C10.33 0.99 10.66 1.98 11 3 C10.01 3.33 9.02 3.66 8 4 C8 3.34 8 2.68 8 2 C7.4225 2.33 6.845 2.66 6.25 3 C4 4 4 4 0 4 C0 2.68 0 1.36 0 0 Z " fill="#FCE2B7" transform="translate(316,226)"/>
<path d="M0 0 C1.98 0.66 3.96 1.32 6 2 C6 2.99 6 3.98 6 5 C6.66 5.66 7.32 6.32 8 7 C3.545 6.01 3.545 6.01 -1 5 C-1 1 -1 1 0 0 Z " fill="#255563" transform="translate(502,208)"/>
<path d="M0 0 C2.31 0 4.62 0 7 0 C7.33 0.66 7.66 1.32 8 2 C4.04 2.99 0.08 3.98 -4 5 C-4 4.01 -4 3.02 -4 2 C-2.68 2 -1.36 2 0 2 C0 1.34 0 0.68 0 0 Z " fill="#F6F2E2" transform="translate(432,248)"/>
<path d="M0 0 C2.97 0.99 5.94 1.98 9 3 C8.01 3.495 8.01 3.495 7 4 C7.33 5.32 7.66 6.64 8 8 C7.01 8 6.02 8 5 8 C0 2.65116279 0 2.65116279 0 0 Z " fill="#CB4039" transform="translate(177,180)"/>
<path d="M0 0 C0.66 0 1.32 0 2 0 C2 2.31 2 4.62 2 7 C0.02 6.34 -1.96 5.68 -4 5 C-4 4.01 -4 3.02 -4 2 C-2.68 2 -1.36 2 0 2 C0 1.34 0 0.68 0 0 Z " fill="#EB6613" transform="translate(262,248)"/>
<path d="M0 0 C1.98 0 3.96 0 6 0 C6 0.66 6 1.32 6 2 C5.34 2 4.68 2 4 2 C3.34 3.98 2.68 5.96 2 8 C1.34 8 0.68 8 0 8 C0 5.36 0 2.72 0 0 Z " fill="#F5EFD8" transform="translate(496,200)"/>
<path d="M0 0 C0.66 0 1.32 0 2 0 C1.49396008 2.16874252 1.00016187 3.99967627 0 6 C-0.66 6 -1.32 6 -2 6 C-2 6.66 -2 7.32 -2 8 C-2.66 8 -3.32 8 -4 8 C-4 6.02 -4 4.04 -4 2 C-2.68 2 -1.36 2 0 2 C0 1.34 0 0.68 0 0 Z " fill="#F0AB28" transform="translate(468,254)"/>
<path d="M0 0 C1.32 0 2.64 0 4 0 C4 0.66 4 1.32 4 2 C3.34 2 2.68 2 2 2 C2 2.66 2 3.32 2 4 C1.34 4 0.68 4 0 4 C0 4.66 0 5.32 0 6 C-0.66 6 -1.32 6 -2 6 C-2.33 6.66 -2.66 7.32 -3 8 C-3.33 6.68 -3.66 5.36 -4 4 C-3.34 4 -2.68 4 -2 4 C-2 3.34 -2 2.68 -2 2 C-1.34 2 -0.68 2 0 2 C0 1.34 0 0.68 0 0 Z " fill="#F7ECDD" transform="translate(492,208)"/>
<path d="M0 0 C1.98 0 3.96 0 6 0 C6 0.66 6 1.32 6 2 C2.5980513 4.09350689 -0.05272412 4.17942163 -4 4 C-4 3.34 -4 2.68 -4 2 C-2.68 2 -1.36 2 0 2 C0 1.34 0 0.68 0 0 Z " fill="#F39A0C" transform="translate(428,282)"/>
<path d="M0 0 C-0.66 1.32 -1.32 2.64 -2 4 C-5.96 4 -9.92 4 -14 4 C-14 3.67 -14 3.34 -14 3 C-12.0424015 2.49713066 -10.08389623 1.9977901 -8.125 1.5 C-7.03445313 1.2215625 -5.94390625 0.943125 -4.8203125 0.65625 C-2 0 -2 0 0 0 Z " fill="#E8A532" transform="translate(432,252)"/>
<path d="M0 0 C1.65 0 3.3 0 5 0 C5 0.33 5 0.66 5 1 C7.31 1.33 9.62 1.66 12 2 C12 2.66 12 3.32 12 4 C10.3745692 3.85904936 8.74965949 3.71207913 7.125 3.5625 C6.22007812 3.48128906 5.31515625 3.40007812 4.3828125 3.31640625 C2 3 2 3 0 2 C0 1.34 0 0.68 0 0 Z " fill="#FAE7B7" transform="translate(332,248)"/>
<path d="M0 0 C3.57410797 2.68058098 6.31941902 5.42589203 9 9 C8.67 9.66 8.34 10.32 8 11 C6.65499045 9.93119777 5.32428562 8.84437492 4 7.75 C3.2575 7.14671875 2.515 6.5434375 1.75 5.921875 C0 4 0 4 0 0 Z " fill="#357D91" transform="translate(480,117)"/>
<path d="M0 0 C0.66 0.33 1.32 0.66 2 1 C1.34 2.65 0.68 4.3 0 6 C1.32 6.66 2.64 7.32 4 8 C3.01 8.495 3.01 8.495 2 9 C-0.625 7.5625 -0.625 7.5625 -3 6 C-2.67 4.68 -2.34 3.36 -2 2 C-1.34 2 -0.68 2 0 2 C0 1.34 0 0.68 0 0 Z " fill="#F8CF89" transform="translate(234,204)"/>
<path d="M0 0 C0.66 0.33 1.32 0.66 2 1 C2 2.32 2 3.64 2 5 C-0.25660504 6.60337726 -2.53164435 7.76582217 -5 9 C-4.34 7.02 -3.68 5.04 -3 3 C-2.01 3 -1.02 3 0 3 C0 2.01 0 1.02 0 0 Z " fill="#3E7286" transform="translate(518,179)"/>
<path d="M0 0 C1.32 0 2.64 0 4 0 C4 0.66 4 1.32 4 2 C5.32 2 6.64 2 8 2 C8 2.66 8 3.32 8 4 C2.25 4.125 2.25 4.125 0 3 C0 2.01 0 1.02 0 0 Z " fill="#F06B18" transform="translate(274,258)"/>
<path d="M0 0 C0 4.32991847 -2.11505369 5.91377837 -5 9 C-5.99 9.33 -6.98 9.66 -8 10 C-6.34908222 5.70761377 -3.26245434 3.1206085 0 0 Z " fill="#172027" transform="translate(417,206)"/>
<path d="M0 0 C4.12751449 0.60698743 7.3321148 2.03810791 11 4 C11 4.66 11 5.32 11 6 C6.95743617 4.77782954 3.50711041 3.37245704 0 1 C0 0.67 0 0.34 0 0 Z " fill="#F3C67D" transform="translate(238,213)"/>
<path d="M0 0 C0.66 0 1.32 0 2 0 C2 1.98 2 3.96 2 6 C0.68 6 -0.64 6 -2 6 C-2.33 5.01 -2.66 4.02 -3 3 C-2.01 2.67 -1.02 2.34 0 2 C0 1.34 0 0.68 0 0 Z " fill="#F8F8EF" transform="translate(454,272)"/>
<path d="M0 0 C-3.2837938 2.48772258 -4.61198583 3.03180444 -8.8125 2.6875 C-9.864375 2.460625 -10.91625 2.23375 -12 2 C-7.72170329 -0.29194467 -4.74957752 -1.52664992 0 0 Z " fill="#CCCDBF" transform="translate(435,226)"/>
<path d="M0 0 C1.4370809 -0.05422947 2.87475462 -0.09289723 4.3125 -0.125 C5.11300781 -0.14820313 5.91351563 -0.17140625 6.73828125 -0.1953125 C9 0 9 0 12 2 C10.37585622 2.19477739 8.75063577 2.38059458 7.125 2.5625 C6.22007812 2.66691406 5.31515625 2.77132813 4.3828125 2.87890625 C2 3 2 3 0 2 C0 1.34 0 0.68 0 0 Z " fill="#F0E8DF" transform="translate(310,276)"/>
<path d="M0 0 C1.32 0 2.64 0 4 0 C3.67 1.65 3.34 3.3 3 5 C2.01 5.33 1.02 5.66 0 6 C0 4.02 0 2.04 0 0 Z " fill="#EB2C21" transform="translate(184,184)"/>
<path d="M0 0 C2.13586678 3.20380017 2.23132175 4.01939967 2.125 7.6875 C2.10695313 8.49574219 2.08890625 9.30398437 2.0703125 10.13671875 C2.04710937 10.75160156 2.02390625 11.36648437 2 12 C-0.21504143 7.66032699 -1.54470348 4.80574417 0 0 Z " fill="#78C7CB" transform="translate(510,138)"/>
<path d="M0 0 C0 3 0 3 -1 6 C-2.9375 6.8125 -2.9375 6.8125 -5 7 C-5.66 6.34 -6.32 5.68 -7 5 C-5.68 4.67 -4.36 4.34 -3 4 C-3 3.34 -3 2.68 -3 2 C-2.01 1.34 -1.02 0.68 0 0 Z " fill="#F4AC41" transform="translate(473,230)"/>
<path d="M0 0 C0.99 0 1.98 0 3 0 C3 0.66 3 1.32 3 2 C3.66 2 4.32 2 5 2 C4.67 3.32 4.34 4.64 4 6 C2.35 4.35 0.7 2.7 -1 1 C-0.67 0.67 -0.34 0.34 0 0 Z " fill="#E2493E" transform="translate(229,232)"/>
<path d="M0 0 C0 0.66 0 1.32 0 2 C-3.47823115 3.15941038 -5.45895578 2.70820884 -9 2 C-8 0 -8 0 -6.1875 -0.6875 C-3.81180233 -1.02688538 -2.26664171 -0.72856341 0 0 Z " fill="#30373D" transform="translate(397,169)"/>
<path d="M0 0 C1.32 0 2.64 0 4 0 C4 0.99 4 1.98 4 3 C4.66 3.33 5.32 3.66 6 4 C5.01 4.495 5.01 4.495 4 5 C1.375 3.5625 1.375 3.5625 -1 2 C-0.67 1.34 -0.34 0.68 0 0 Z " fill="#E6692C" transform="translate(248,245)"/>
<path d="M0 0 C1.98 1.65 3.96 3.3 6 5 C5.34 5.66 4.68 6.32 4 7 C3.34 6.67 2.68 6.34 2 6 C2 5.34 2 4.68 2 4 C1.34 4 0.68 4 0 4 C0 2.68 0 1.36 0 0 Z " fill="#EBE6E1" transform="translate(208,216)"/>
<path d="M0 0 C0.66 0 1.32 0 2 0 C2.33 1.98 2.66 3.96 3 6 C2.01 6.33 1.02 6.66 0 7 C0 4.69 0 2.38 0 0 Z " fill="#336D82" transform="translate(520,196)"/>
<path d="M0 0 C1.67542976 0.28604898 3.34385343 0.61781233 5 1 C5 1.99 5 2.98 5 4 C3.68 4 2.36 4 1 4 C1 3.34 1 2.68 1 2 C0.34 1.67 -0.32 1.34 -1 1 C-0.67 0.67 -0.34 0.34 0 0 Z " fill="#E2351A" transform="translate(207,198)"/>
<path d="M0 0 C1.98 1.65 3.96 3.3 6 5 C4.68 5.33 3.36 5.66 2 6 C2 5.34 2 4.68 2 4 C1.34 4 0.68 4 0 4 C0 2.68 0 1.36 0 0 Z " fill="#EBDDDB" transform="translate(202,210)"/>
<path d="M0 0 C0.66 0 1.32 0 2 0 C3.125 3.75 3.125 3.75 2 6 C1.34 6 0.68 6 0 6 C0 5.34 0 4.68 0 4 C-0.66 4 -1.32 4 -2 4 C-2 3.34 -2 2.68 -2 2 C-1.34 2 -0.68 2 0 2 C0 1.34 0 0.68 0 0 Z " fill="#F8AC15" transform="translate(496,208)"/>
<path d="M0 0 C0.66 0 1.32 0 2 0 C0.25 5.75 0.25 5.75 -2 8 C-3 5 -3 5 -2 2 C-1.34 2 -0.68 2 0 2 C0 1.34 0 0.68 0 0 Z " fill="#EAB342" transform="translate(506,194)"/>
<path d="M0 0 C0.66 0.33 1.32 0.66 2 1 C-0.17424117 3.50037734 -1.73045798 4.43628586 -5 5 C-5 4.01 -5 3.02 -5 2 C-2.625 0.9375 -2.625 0.9375 0 0 Z " fill="#22323E" transform="translate(410,161)"/>
<path d="M0 0 C0.66 0.33 1.32 0.66 2 1 C-2.75 5.875 -2.75 5.875 -5 7 C-4.60196439 4.11424181 -4.20990931 3.17810487 -1.9375 1.25 C-1.298125 0.8375 -0.65875 0.425 0 0 Z " fill="#337582" transform="translate(475,116)"/>
</svg>
